<svg height="211.4102210619817" overflow="visible" viewBox="0 0 214.6185247825846 211.4102210619817" width="214.6185247825846" xmlns="http://www.w3.org/2000/svg"><g><defs><path id="path-1747222392636749" d="M45.21667,140.61783c-10.96882,0 -21.82903,-3.90244 -30.4086,-11.59892c-10.75161,-9.8645 -16.07312,-23.73984 -14.55269,-38.26558l8.57957,-71.11111c0.54301,-6.82927 4.45269,-13.00813 10.3172,-16.58537c10.1,-6.07046 23.34946,-2.81843 29.43118,7.26287v0l38.01075,67.20867c7.71075,17.56098 3.36667,38.15718 -10.86022,51.27371c-8.47097,7.91328 -19.43978,11.81572 -30.5172,11.81572zM30.22957,2.08125c-3.36667,0 -6.84194,0.86721 -9.8828,2.71003c-5.32151,3.14363 -8.79677,8.78049 -9.23118,14.95935l-8.57957,71.21951c-1.52043,13.76694 3.58387,26.99187 13.79247,36.42276c16.29032,14.85095 41.81183,14.74255 58.10215,-0.2168c13.46667,-12.35772 17.59355,-31.97832 10.3172,-48.78049l-37.90215,-67.10027c-3.69247,-5.85366 -10.1,-9.21409 -16.61613,-9.21409z" vector-effect="non-scaling-stroke"/></defs><path style="stroke-width: 0; stroke-linecap: butt; stroke-linejoin: miter; fill: rgb(255, 255, 255);" d="M45.21667,140.61783c-10.96882,0 -21.82903,-3.90244 -30.4086,-11.59892c-10.75161,-9.8645 -16.07312,-23.73984 -14.55269,-38.26558l8.57957,-71.11111c0.54301,-6.82927 4.45269,-13.00813 10.3172,-16.58537c10.1,-6.07046 23.34946,-2.81843 29.43118,7.26287v0l38.01075,67.20867c7.71075,17.56098 3.36667,38.15718 -10.86022,51.27371c-8.47097,7.91328 -19.43978,11.81572 -30.5172,11.81572zM30.22957,2.08125c-3.36667,0 -6.84194,0.86721 -9.8828,2.71003c-5.32151,3.14363 -8.79677,8.78049 -9.23118,14.95935l-8.57957,71.21951c-1.52043,13.76694 3.58387,26.99187 13.79247,36.42276c16.29032,14.85095 41.81183,14.74255 58.10215,-0.2168c13.46667,-12.35772 17.59355,-31.97832 10.3172,-48.78049l-37.90215,-67.10027c-3.69247,-5.85366 -10.1,-9.21409 -16.61613,-9.21409z" transform="translate(79.75003744681595, 3.050235419972978) rotate(730)" vector-effect="non-scaling-stroke"/></g><g><defs><path id="path-1747222392636747" d="M107.19032258064553 62.222222222208536 C112.18602150537662 62.222222222208536 116.9645161290326 62.98102981028424 120.76559139784989 64.49864498643556 C122.50322580645208 64.3902439024248 124.24086021505425 64.3902439024248 125.97849462365635 64.71544715445722 C125.97849462365635 64.71544715445722 125.97849462365635 64.71544715445722 126.08709677419402 64.71544715445722 C121.63440860215077 61.78861788616518 114.57526881720467 60.162601626002896 107.29892473118312 60.162601626002896 C99.26236559139811 60.162601626002896 91.87741935483888 62.11382113819768 87.53333333333354 65.36585365852217 C87.53333333333354 65.36585365852217 88.83655913978525 67.1002710026952 88.83655913978525 67.1002710026952 C92.74623655914009 64.06504065039235 99.69677419354865 62.222222222208536 107.19032258064553 62.222222222208536 Z" vector-effect="non-scaling-stroke"/></defs> <path style="stroke-width: 0; stroke-linecap: butt; stroke-linejoin: miter; fill: rgb(255, 255, 255); transform-box: fill-box; transform-origin: center center; transform: rotate(730deg);" d="M123.809483433369 8.374169794357385 C128.80518235810007 8.374169794357385 133.58367698175607 9.132977382433182 137.38475225057334 10.650592558584322 C139.1223866591755 10.542191474573428 140.86002106777767 10.542191474573428 142.59765547637977 10.867394726606108 C142.59765547637977 10.867394726606108 142.59765547637977 10.867394726606108 142.70625762691748 10.867394726606108 C138.2535694548742 7.940565458313813 131.19442966992813 6.314549198151781 123.91808558390653 6.314549198151781 C115.88152644412156 6.314549198151781 108.49658020756232 8.265768710346492 104.15249418605697 11.517801230671012 C104.15249418605697 11.517801230671012 105.4557199925087 13.252218574843937 105.4557199925087 13.252218574843937 C109.36539741186351 10.216988222541204 116.3159350462721 8.374169794357385 123.809483433369 8.374169794357385 Z" vector-effect="non-scaling-stroke"/></g><g><defs><path id="path-1747222392635745" d="M95.0402,63.15498l-60.7086,-47.80488v0c-4.56129,-3.36043 -10.2086,-4.87805 -15.96452,-4.01084c-2.17204,0.3252 -4.23548,0.97561 -6.19032,1.95122c3.04086,-2.92683 7.27634,-5.74526 12.05484,-7.80488c6.95054,-2.92683 14.00968,-4.01084 18.89677,-2.81843l0.54301,-2.05962c-5.43011,-1.40921 -13.03226,-0.3252 -20.3086,2.81843c-6.95054,2.92683 -12.92366,7.47967 -15.85591,12.03252v0c-1.19462,1.19241 -2.17204,2.81843 -3.25806,4.22764c-4.12688,5.52846 -5.32151,12.68293 -3.25806,19.29539l19.11398,69.05149c4.01828,13.98374 14.22688,24.82385 27.91075,29.9187c4.9957,1.84282 10.2086,2.71003 15.3129,2.71003c17.15914,0 33.55806,-9.7561 41.16022,-25.90786c8.14516,-17.45257 4.34409,-38.15718 -9.44839,-51.59892zM102.53374,113.77828c-9.33978,19.9458 -32.90645,29.7019 -53.64946,22.11382c-13.03226,-4.76965 -22.69785,-15.17615 -26.60753,-28.40108l-19.11398,-69.15989c-1.84624,-5.85366 -0.76022,-12.35772 2.93226,-17.34417c3.04086,-4.11924 7.60215,-6.82927 12.70645,-7.58808c0.97742,-0.1084 1.84624,-0.2168 2.82366,-0.2168c4.12688,0 8.14516,1.30081 11.40323,3.79404l60.6,47.69648c13.03226,12.79133 16.61613,32.52033 8.90538,49.10569z" vector-effect="non-scaling-stroke"/></defs><path style="stroke-width: 0; stroke-linecap: butt; stroke-linejoin: miter; fill: rgb(255, 255, 255);" d="M95.0402,63.15498l-60.7086,-47.80488v0c-4.56129,-3.36043 -10.2086,-4.87805 -15.96452,-4.01084c-2.17204,0.3252 -4.23548,0.97561 -6.19032,1.95122c3.04086,-2.92683 7.27634,-5.74526 12.05484,-7.80488c6.95054,-2.92683 14.00968,-4.01084 18.89677,-2.81843l0.54301,-2.05962c-5.43011,-1.40921 -13.03226,-0.3252 -20.3086,2.81843c-6.95054,2.92683 -12.92366,7.47967 -15.85591,12.03252v0c-1.19462,1.19241 -2.17204,2.81843 -3.25806,4.22764c-4.12688,5.52846 -5.32151,12.68293 -3.25806,19.29539l19.11398,69.05149c4.01828,13.98374 14.22688,24.82385 27.91075,29.9187c4.9957,1.84282 10.2086,2.71003 15.3129,2.71003c17.15914,0 33.55806,-9.7561 41.16022,-25.90786c8.14516,-17.45257 4.34409,-38.15718 -9.44839,-51.59892zM102.53374,113.77828c-9.33978,19.9458 -32.90645,29.7019 -53.64946,22.11382c-13.03226,-4.76965 -22.69785,-15.17615 -26.60753,-28.40108l-19.11398,-69.15989c-1.84624,-5.85366 -0.76022,-12.35772 2.93226,-17.34417c3.04086,-4.11924 7.60215,-6.82927 12.70645,-7.58808c0.97742,-0.1084 1.84624,-0.2168 2.82366,-0.2168c4.12688,0 8.14516,1.30081 11.40323,3.79404l60.6,47.69648c13.03226,12.79133 16.61613,32.52033 8.90538,49.10569z" transform="translate(61.455696829431815, -0.0000034964409678650554) rotate(730)" vector-effect="non-scaling-stroke"/></g><g><defs><path id="path-1747222392635743" d="M80.80535,18.53352v0c-0.86882,-5.63686 -3.90968,-10.62331 -8.47097,-14.09214c-1.19462,-0.86721 -2.60645,-1.62602 -3.90968,-2.27642c4.23548,0 9.33978,1.08401 14.33548,3.25203c4.77849,2.05962 8.90538,4.76965 11.94624,7.69648c1.41183,0.54201 2.82366,1.08401 4.01828,1.51762c0.1086,0 0.1086,0 0.2172,0c-3.04086,-4.22764 -8.68817,-8.45528 -15.3129,-11.16531c-7.38495,-3.14363 -14.9871,-4.22764 -20.3086,-2.92683c-2.28065,-0.4336 -4.56129,-0.3252 -6.84194,0c-6.84194,1.08401 -12.70645,5.31165 -15.85591,11.38211l-35.07849,62.54743c-6.95054,12.79133 -7.38495,27.64228 -1.19462,40.86721c7.60215,16.04336 24.00108,25.79946 41.05161,25.79946c5.1043,0 10.42581,-0.86721 15.42151,-2.71003c18.02796,-6.72087 29.97419,-24.06504 29.53978,-43.25203zM59.95374,136.4739c-20.74301,7.69648 -44.30968,-1.95122 -53.75806,-21.89702c-5.97312,-12.57453 -5.53871,-26.77507 1.08602,-38.91599l35.07849,-62.54743c2.82366,-5.52846 8.14516,-9.32249 14.22688,-10.2981c0.97742,-0.1084 1.95484,-0.2168 2.93226,-0.2168c4.12688,0 8.03656,1.30081 11.40323,3.79404c4.12688,3.03523 6.84194,7.47967 7.60215,12.57453l9.44839,76.42276c0.43441,18.21138 -10.86022,34.68835 -28.01935,41.08401z" vector-effect="non-scaling-stroke"/></defs><path style="stroke-width: 0; stroke-linecap: butt; stroke-linejoin: miter; fill: rgb(255, 255, 255);" d="M80.80535,18.53352v0c-0.86882,-5.63686 -3.90968,-10.62331 -8.47097,-14.09214c-1.19462,-0.86721 -2.60645,-1.62602 -3.90968,-2.27642c4.23548,0 9.33978,1.08401 14.33548,3.25203c4.77849,2.05962 8.90538,4.76965 11.94624,7.69648c1.41183,0.54201 2.82366,1.08401 4.01828,1.51762c0.1086,0 0.1086,0 0.2172,0c-3.04086,-4.22764 -8.68817,-8.45528 -15.3129,-11.16531c-7.38495,-3.14363 -14.9871,-4.22764 -20.3086,-2.92683c-2.28065,-0.4336 -4.56129,-0.3252 -6.84194,0c-6.84194,1.08401 -12.70645,5.31165 -15.85591,11.38211l-35.07849,62.54743c-6.95054,12.79133 -7.38495,27.64228 -1.19462,40.86721c7.60215,16.04336 24.00108,25.79946 41.05161,25.79946c5.1043,0 10.42581,-0.86721 15.42151,-2.71003c18.02796,-6.72087 29.97419,-24.06504 29.53978,-43.25203zM59.95374,136.4739c-20.74301,7.69648 -44.30968,-1.95122 -53.75806,-21.89702c-5.97312,-12.57453 -5.53871,-26.77507 1.08602,-38.91599l35.07849,-62.54743c2.82366,-5.52846 8.14516,-9.32249 14.22688,-10.2981c0.97742,-0.1084 1.95484,-0.2168 2.93226,-0.2168c4.12688,0 8.03656,1.30081 11.40323,3.79404c4.12688,3.03523 6.84194,7.47967 7.60215,12.57453l9.44839,76.42276c0.43441,18.21138 -10.86022,34.68835 -28.01935,41.08401z" transform="translate(79.97917232321021, 2.5653620719954233) rotate(730)" vector-effect="non-scaling-stroke"/></g><g><defs><path id="path-1747222392635741" d="M171.04838709677338 99.0785907859062 C170.5053763440851 99.0785907859062 169.96236559139686 99.0785907859062 169.5279569892465 99.18699186991708 C169.4193548387088 100.1626016260146 169.31075268817114 101.24661246612297 168.9849462365581 102.22222222222041 C168.9849462365581 102.22222222222041 147.80752688171938 176.260162601623 147.80752688171938 176.260162601623 C140.96559139784853 193.17073170731408 124.13225806451553 204.01084010839764 105.77849462365528 203.1436314363109 C83.73225806451559 202.16802168021337 65.7043010752685 184.0650406504035 64.83548387096741 161.9512195121923 C64.29247311827925 148.07588075880503 70.15698924731139 135.17615176151537 81.01720430107488 126.61246612465912 C81.01720430107488 126.61246612465912 137.81612903225727 82.71002710026963 137.81612903225727 82.71002710026963 C141.29139784946153 79.78319783197695 145.74408602150453 78.15718157181445 150.3053763440852 78.15718157181445 C151.93440860214952 78.15718157181445 153.45483870967652 78.37398373983609 155.08387096774106 78.69918699186857 C160.07956989247214 79.99999999999868 164.31505376343995 83.14363143631297 166.92150537634322 87.47967479674647 C168.6591397849452 90.40650406503912 169.5279569892465 93.55013550135348 169.63655913978408 96.80216802167858 C170.39677419354737 96.80216802167858 171.04838709677338 96.69376693766776 171.80860215053661 96.80216802167858 C171.69999999999908 93.11653116531008 170.72258064516046 89.53929539295238 168.76774193548283 86.39566395663817 C167.79032258064422 84.76964769647556 166.59569892473024 83.36043360433462 165.29247311827862 82.05962059620457 C169.31075268817114 83.6856368563671 173.65483870967634 86.7208672086707 177.4559139784935 90.62330623306083 C181.1483870967731 94.41734417344017 183.97204301075146 98.64498644986281 185.60107526881634 102.547425474253 C186.68709677419255 103.52303523035064 187.5559139784936 104.49864498644818 188.42473118279455 105.69105691056735 C188.64193548387004 105.79945799457825 188.7505376344076 105.90785907858903 188.96774193548288 106.0162601625999 C187.990322580644 100.81300813007962 184.29784946236444 94.52574525745095 178.97634408602042 89.10569105690907 C173.43763440860116 83.36043360433463 166.8129032258056 79.45799457994445 161.38279569892393 78.69918699186857 C159.64516129032168 78.15718157181445 157.58172043010669 77.18157181571672 155.5182795698917 76.63956639566265 C148.8935483870959 74.90514905148929 141.72580645161224 76.53116531165188 136.404301075268 80.97560975609618 C136.404301075268 80.97560975609618 79.6053763440856 124.87804878048564 79.6053763440856 124.87804878048564 C68.20215053763401 133.9837398373961 62.01182795698894 147.53387533875087 62.55483870967705 162.05962059620322 C63.53225806451586 185.25745257452266 82.32043010752646 204.2276422764192 105.56129032258013 205.3116531165276 C106.32150537634348 205.3116531165276 106.97311827956935 205.3116531165276 107.73333333333282 205.3116531165276 C126.19569892473042 205.3116531165276 142.8118279569885 194.14634146341143 149.76236559139707 176.91056910568793 C149.76236559139707 176.91056910568793 170.93978494623568 102.65582655826388 170.93978494623568 102.65582655826388 C170.93978494623568 102.65582655826388 170.93978494623568 102.65582655826388 170.93978494623568 102.65582655826388 C171.2655913978485 101.46341463414475 171.3741935483862 100.27100271002543 171.48279569892378 99.07859078590623 C171.3741935483862 99.0785907859062 171.2655913978485 99.0785907859062 171.04838709677338 99.0785907859062 Z" vector-effect="non-scaling-stroke"/></defs> <path style="stroke-width: 0; stroke-linecap: butt; stroke-linejoin: miter; fill: rgb(255, 255, 255); transform-box: fill-box; transform-origin: center center; transform: rotate(730deg);" d="M174.0083417323092 47.348638951036264 C173.46533097962094 47.348638951036264 172.92232022693258 47.348638951036264 172.4879116247822 47.45704003504716 C172.37930947424456 48.43264979114474 172.27070732370692 49.51666063125276 171.94490087209385 50.492270387350345 C171.94490087209385 50.492270387350345 150.7674815172552 124.53021076675304 150.7674815172552 124.53021076675304 C143.9255460333843 141.44077987244418 127.09221270005128 152.28088827352758 108.73844925919104 151.4136796014409 C86.69221270005136 150.4380698453433 68.6642557108043 132.33508881553325 67.79543850650316 110.22126767732243 C67.25242775381503 96.34592892393493 73.11694388284718 83.44619992664548 83.97715893661064 74.88251428978901 C83.97715893661064 74.88251428978901 140.77608366779305 30.98007526539959 140.77608366779305 30.98007526539959 C144.2513524849973 28.053245997106842 148.7040406570403 26.427229736944355 153.265330979621 26.427229736944355 C154.8943632376853 26.427229736944355 156.41479334521227 26.64403190496614 158.0438256032768 26.969235156998366 C163.03952452800797 28.270048165128628 167.27500839897573 31.413679601443164 169.88146001187897 35.749722961876614 C171.61909442048102 38.67655223016891 172.4879116247822 41.820183666483445 172.59651377531986 45.07221618680842 C173.35672882908318 45.07221618680842 174.0083417323092 44.96381510279798 174.7685567860724 45.07221618680842 C174.65995463553486 41.38657933043987 173.68253528069624 37.80934355808222 171.72769657101856 34.66571212176814 C170.75027721618005 33.03969586160565 169.55565356026602 31.630481769464495 168.25242775381446 30.329668761334688 C172.27070732370692 31.955685021497175 176.6147933452121 34.99091537380082 180.41586861402925 38.893354398190695 C184.10834173230887 42.687392338570135 186.9319976462872 46.91503461499269 188.56102990435215 50.817473639383024 C189.6470514097283 51.79308339548061 190.5158686140294 52.76869315157819 191.38468581833035 53.96110507569756 C191.60189011940577 54.06950615970845 191.71049226994342 54.17790724371889 191.9276965710186 54.286308327729785 C190.95027721617976 49.083056295209644 187.25780409790025 42.79579342258103 181.93629872155623 37.3757392220391 C176.3975890441369 31.630481769464495 169.77285786134132 27.728042745074617 164.34275033445977 26.969235156998366 C162.6051159258575 26.427229736944355 160.5416750656425 25.451619980846772 158.4782342054275 24.90961456079276 C151.85350302263168 23.17519721661938 144.68576108714808 24.801213476781868 139.36425571080377 29.24565792122621 C139.36425571080377 29.24565792122621 82.56533097962136 73.14809694561563 82.56533097962136 73.14809694561563 C71.16210517316978 82.25378800252611 64.97178259252473 95.80392350388092 65.51479334521281 110.32966876133332 C66.49221270005165 133.52750073965262 85.28038474306226 152.49769044154937 108.52124495811591 153.5817012816574 C109.28146001187929 153.5817012816574 109.93307291510513 153.5817012816574 110.69328796886862 153.5817012816574 C129.15565356026622 153.5817012816574 145.77178259252435 142.4163896285413 152.72232022693288 125.18061727081795 C152.72232022693288 125.18061727081795 173.89973958177143 50.92587472339392 173.89973958177143 50.92587472339392 C173.89973958177143 50.92587472339392 173.89973958177143 50.92587472339392 173.89973958177143 50.92587472339392 C174.22554603338426 49.73346279927455 174.3341481839219 48.54105087515563 174.44275033445956 47.348638951036264 C174.3341481839219 47.348638951036264 174.22554603338426 47.348638951036264 174.0083417323092 47.348638951036264 Z" vector-effect="non-scaling-stroke"/></g><g><defs><path id="path-1747222392634739" d="M188.09892473118302 127.15447154471329 C187.66451612903248 128.02168021680006 187.12150537634452 128.88888888888667 186.46989247311836 129.75609756097342 C186.46989247311836 129.75609756097342 138.57634408602166 190.13550135501038 138.57634408602166 190.13550135501038 C125.76129032258072 203.2520325203218 106.104301075269 206.72086720866858 89.48817204301086 199.0243902438991 C69.50537634408603 189.70189701896695 59.839784946236584 166.17886178861505 67.44193548387099 145.47425474254496 C72.22043010752701 132.4661246612444 82.64623655913996 122.81842818427978 95.89569892473124 118.91598915988969 C95.89569892473124 118.91598915988969 165.18387096774217 99.94579945799295 165.18387096774217 99.94579945799295 C167.13870967741963 99.29539295392786 169.09354838709697 99.07859078590626 171.04838709677443 99.07859078590626 C175.17526881720448 99.07859078590626 179.19354838709714 100.37940379403625 182.56021505376376 102.87262872628553 C189.61935483870985 108.18428184281662 192.00860215053777 117.39837398373795 188.96774193548413 125.20325203251831 C189.61935483870985 125.42005420053994 190.3795698924735 125.74525745257247 191.03118279569924 125.96205962059415 C192.9860215053767 120.97560975609558 192.87741935483908 115.55555555555355 191.03118279569924 110.67750677506584 C193.9634408602154 113.71273712736934 196.56989247311873 117.94037940379212 198.5247311827962 122.71002710026892 C200.47956989247348 127.37127371273495 201.45698924731215 132.14092140921193 201.5655913978497 136.2601626016237 C202.32580645161312 137.77777777777564 202.86881720430134 139.40379403793796 203.1946236559143 141.1382113821113 C203.1946236559143 141.24661246612217 203.30322580645193 141.24661246612217 203.30322580645193 141.35501355013304 C204.38924731182843 136.043360433602 203.30322580645193 128.88888888888667 200.47956989247348 121.8428184281822 C197.4387096774198 114.57994579945615 192.87741935483908 108.50948509484915 188.2075268817207 105.58265582655653 C187.0129032258068 103.8482384823831 185.4924731182799 102.33062330623137 183.64623655914008 101.02981029810131 C178.1075268817207 96.91056910568942 170.93978494623684 95.71815718157025 164.31505376344103 97.77777777777612 C164.31505376344103 97.77777777777612 95.02688172043015 116.74796747967295 95.02688172043015 116.74796747967295 C81.01720430107534 120.75880758807385 70.04838709677425 130.9485094850926 65.0526881720431 144.60704607045818 C57.01612903225815 166.39566395663687 67.22473118279578 191.11111111110807 88.29354838709692 200.97560975609426 C94.48387096774206 203.90243902438678 101.00000000000013 205.20325203251687 107.51612903225819 205.20325203251687 C119.46236559139804 205.20325203251687 131.1913978494626 200.43360433604008 139.98817204301076 191.5447154471513 C139.98817204301076 191.5447154471513 187.99032258064548 130.9485094850926 187.99032258064548 130.9485094850926 C187.99032258064548 130.9485094850926 187.99032258064548 130.9485094850926 187.99032258064548 130.9485094850926 C188.75053763440886 129.9728997289951 189.40215053763464 128.88888888888667 189.94516129032274 127.80487804877832 C189.51075268817218 127.69647696476758 188.75053763440886 127.37127371273495 188.09892473118302 127.15447154471329 Z" vector-effect="non-scaling-stroke"/></defs> <path style="stroke-width: 0; stroke-linecap: butt; stroke-linejoin: miter; fill: rgb(255, 255, 255); transform-box: fill-box; transform-origin: center center; transform: rotate(730deg);" d="M189.14926287820174 76.52961957096932 C188.71485427605114 77.396828243056 188.17184352336324 78.2640369151427 187.5202306201371 79.13124558722939 C187.5202306201371 79.13124558722939 139.62668223304036 139.51064938126638 139.62668223304036 139.51064938126638 C126.81162846959944 152.62718054657762 107.1546392222877 156.09601523492438 90.53851019002957 148.39953827015506 C70.55571449110471 139.0770450452228 60.89012309325528 115.55400981487082 68.49227363088971 94.8494027688007 C73.27076825454571 81.84127268750035 83.69657470615869 72.19357621053541 96.94603707174991 68.29113718614553 C96.94603707174991 68.29113718614553 166.2342091147608 49.32094748424879 166.2342091147608 49.32094748424879 C168.18904782443826 48.67054098018389 170.14388653411572 48.4537388121621 172.09872524379318 48.4537388121621 C176.22560696422318 48.4537388121621 180.24388653411586 49.75455182029191 183.61055320078242 52.24777675254154 C190.6696929857286 57.559429869072574 193.05894029755643 66.77352200999394 190.01808008250282 74.57840005877415 C190.6696929857286 74.79520222679594 191.42990803949226 75.12040547882816 192.08152094271793 75.33720764684995 C194.0363596523954 70.3507577823516 193.92775750185774 64.93070358180921 192.08152094271793 60.05265480132175 C195.01377900723412 63.08788515362494 197.62023062013748 67.31552743004795 199.57506932981494 72.08517512652497 C201.52990803949217 76.74642173899065 202.5073273943309 81.51606943546767 202.61592954486844 85.63531062787933 C203.37614459863187 87.15292580403138 203.91915535132 88.77894206419387 204.24496180293306 90.51335940836725 C204.24496180293306 90.62176049237814 204.3535639534706 90.62176049237814 204.3535639534706 90.73016157638904 C205.4395854588471 85.418508459858 204.3535639534706 78.2640369151427 201.52990803949217 71.21796645443783 C198.48904782443844 63.95509382571208 193.92775750185774 57.8846331211048 189.2578650287394 54.9578038528125 C188.06324137282547 53.22338650863912 186.5428112652986 51.705771332487075 184.6965747061588 50.40495832435727 C179.15786502873937 46.28571713194515 171.99012309325553 45.09330520782623 165.36539191045972 47.15292580403184 C165.36539191045972 47.15292580403184 96.07721986744883 66.12311550592858 96.07721986744883 66.12311550592858 C82.06754244809406 70.1339556143298 71.09872524379296 80.3236575113483 66.10302631906177 93.98219409671401 C58.066467179276856 115.77081198289261 68.27506932981447 140.48625913736396 89.3438865341156 150.35075778235023 C95.53420911476076 153.27758705064252 102.0503381470188 154.5784000587728 108.56646717927686 154.5784000587728 C120.51270373841675 154.5784000587728 132.24173599648128 149.80875236229576 141.03851019002946 140.91986347340708 C141.03851019002946 140.91986347340708 189.0406607276642 80.3236575113483 189.0406607276642 80.3236575113483 C189.0406607276642 80.3236575113483 189.0406607276642 80.3236575113483 189.0406607276642 80.3236575113483 C189.80087578142752 79.34804775525072 190.4524886846533 78.2640369151427 190.99549943734144 77.18002607503422 C190.56109083519084 77.07162499102333 189.80087578142752 76.74642173899065 189.14926287820174 76.52961957096932 Z" vector-effect="non-scaling-stroke"/></g><g><defs><path id="path-1747222392634737" d="M193.42043010752502 163.9024390243881 C194.50645161290115 163.252032520323 195.48387096774016 162.49322493224724 196.35268817204107 161.73441734417128 C195.80967741935314 161.19241192411718 195.3752688172023 160.6504065040629 194.72365591397636 160.21680216801946 C193.9634408602132 160.86720867208447 193.0946236559122 161.51761517614975 192.22580645161125 162.0596205962037 C192.22580645161125 162.0596205962037 125.00107526881605 199.89159891598658 125.00107526881605 199.89159891598658 C108.27634408602039 207.15447154471275 88.61935483870883 203.03523035230083 76.23870967741856 189.5934959349569 C61.25161290322518 173.33333333333104 61.25161290322518 147.85907859078404 76.13010752688093 131.598915989158 C84.3838709677411 122.49322493224776 95.78709677419266 117.50677506774913 107.84193548386993 117.50677506774913 C109.36236559139688 117.50677506774913 110.99139784946118 117.61517615175991 112.62043010752588 117.72357723577079 C112.62043010752588 117.72357723577079 183.9720430107509 126.28726287262707 183.9720430107509 126.28726287262707 C190.16236559139614 126.82926829268116 195.7010752688154 130.29810298102817 198.95913978494423 135.50135501354845 C201.5655913978478 139.9457994579927 202.43440860214878 145.04065040650215 201.13118279569707 150.02710027100082 C200.37096774193364 153.27913279132585 198.74193548386907 156.20596205961854 196.46129032257883 158.59078590785705 C197.00430107526708 159.02439024390026 197.54731182795516 159.56639566395455 197.9817204301055 160.10840108400868 C200.4795698924714 157.50677506774852 202.3258064516111 154.25474254742343 203.19462365591212 150.56910569105483 C203.52043010752513 149.15989159891413 203.7376344086003 147.85907859078404 203.84623655913782 146.44986449864297 C205.47526881720248 150.35230352303327 206.34408602150347 155.4471544715427 206.23548387096582 160.75880758807386 C206.23548387096582 165.74525745257213 205.36666666666483 170.6233062330598 203.84623655913782 174.41734417343943 C203.84623655913782 176.1517615176128 203.7376344086003 177.7777777777756 203.41182795698734 179.51219512194882 C203.41182795698734 179.62059620595943 203.41182795698734 179.8373983739813 203.52043010752513 179.94579945799208 C206.56129032257874 175.50135501354782 208.4075268817184 168.34688346883223 208.51612903225617 160.75880758807386 C208.51612903225617 152.84552845528256 206.6698924731163 145.5826558265563 203.41182795698734 141.13821138211185 C202.97741935483677 138.8617886178843 202.1086021505358 136.58536585365664 200.8053763440843 134.41734417343994 C197.22150537634244 128.56368563685456 191.0311827956971 124.66124661246442 184.18924731182616 124.11924119241033 C184.18924731182616 124.11924119241033 112.94623655913868 115.55555555555404 112.94623655913868 115.55555555555404 C98.39354838709579 114.03794037940227 84.49247311827878 119.24119241192248 74.60967741935413 130.08130081300635 C58.970967741934935 147.2086720867189 59.079569892472605 173.98373983739606 74.71827956989175 191.00271002709795 C83.51505376344004 200.54200542005154 95.67849462365501 205.52845528455046 108.05913978494516 205.52845528455046 C114.14086021505273 205.52845528455046 120.22258064516018 204.3360433604307 126.0870967741924 201.73441734417082 C126.0870967741924 201.73441734417082 193.42043010752502 163.9024390243881 193.42043010752502 163.9024390243881 C193.42043010752502 163.9024390243881 193.42043010752502 163.9024390243881 193.42043010752502 163.9024390243881 Z" vector-effect="non-scaling-stroke"/></defs> <path style="stroke-width: 0; stroke-linecap: butt; stroke-linejoin: miter; fill: rgb(255, 255, 255); transform-box: fill-box; transform-origin: center center; transform: rotate(730deg);" d="M192.7944120631969 113.60514242696945 C193.88043356857304 112.95473592290455 194.857852923412 112.19592833482875 195.72667012771296 111.4371207467525 C195.18365937502506 110.89511532669849 194.74925077287423 110.35310990664448 194.09763786964822 109.9195055706009 C193.33742281588513 110.56991207466581 192.46860561158405 111.22031857873117 191.59978840728309 111.76232399878518 C191.59978840728309 111.76232399878518 124.37505722448793 149.59430231856777 124.37505722448793 149.59430231856777 C107.65032604169227 156.85717494729397 87.9933367943807 152.7379337548823 75.61269163309044 139.29619933753838 C60.625594858897045 123.0360367359126 60.625594858897045 97.56178199336546 75.50408948255279 81.30161939173922 C83.757852923413 72.1959283348292 95.16107872986453 67.2094784703304 107.21591743954178 67.2094784703304 C108.73634754706876 67.2094784703304 110.36537980513305 67.31787955434129 111.99441206319773 67.42628063835218 C111.99441206319773 67.42628063835218 183.34602496642276 75.98996627520864 183.34602496642276 75.98996627520864 C189.53634754706798 76.53197169526265 195.0750572244873 80.00080638360942 198.3331217406161 85.20405841613001 C200.93957335351968 89.6485028605739 201.80839055782064 94.7433538090836 200.50516475136897 99.72980367358241 C199.74494969760553 102.98183619390738 198.1159174395409 105.90866546220013 195.83527227825073 108.29348931043842 C196.37828303093897 108.72709364648153 196.921293783627 109.269099066536 197.35570238577736 109.81110448659001 C199.8535518481433 107.20947847032994 201.699788407283 103.95744595000497 202.56860561158396 100.27180909363642 C202.89441206319702 98.86259500149572 203.1116163642722 97.56178199336546 203.22021851480974 96.1525679012243 C204.84925077287437 100.05500692561463 205.71806797717534 105.14985787412388 205.6094658266377 110.46151099065537 C205.6094658266377 115.44796085515372 204.74064862233672 120.32600963564119 203.22021851480974 124.12004757602062 C203.22021851480974 125.854464920194 203.1116163642722 127.48048118035695 202.78580991265915 129.21489852453033 C202.78580991265915 129.32329960854076 202.78580991265915 129.54010177656255 202.89441206319702 129.64850286057344 C205.93527227825064 125.2040584161291 207.78150883739033 118.0495868714138 207.8901109879281 110.46151099065537 C207.8901109879281 102.54823185786381 206.04387442878817 95.28535922913761 202.78580991265915 90.84091478469327 C202.35140131050866 88.56449202046588 201.4825841062077 86.28806925623803 200.17935829975613 84.12004757602153 C196.59548733201427 78.26638903943604 190.40516475136894 74.3639500150457 183.56322926749806 73.82194459499169 C183.56322926749806 73.82194459499169 112.32021851481056 65.25825895813523 112.32021851481056 65.25825895813523 C97.76753034276766 63.740643781983636 83.86645507395065 68.94389581450378 73.98365937502598 79.78400421558763 C58.34494969760681 96.9113754893001 58.45355184814446 123.6864432399775 74.09226152556363 140.70541342967954 C82.88903571911192 150.24470882263313 95.05247657932688 155.23115868713194 107.43312174061703 155.23115868713194 C113.51484217072459 155.23115868713194 119.59656260083204 154.0387467630121 125.46107872986425 151.43712074675204 C125.46107872986425 151.43712074675204 192.7944120631969 113.60514242696945 192.7944120631969 113.60514242696945 C192.7944120631969 113.60514242696945 192.7944120631969 113.60514242696945 192.7944120631969 113.60514242696945 Z" vector-effect="non-scaling-stroke"/></g><g><defs><path id="path-1747222392634735" d="M203.6290322580636 171.70731707316057 C202.5430107526873 164.87804878047805 198.3075268817196 159.0243902438931 192.22580645161233 155.88075880757887 C192.22580645161233 155.88075880757887 129.56236559139728 120.7588075880687 129.56236559139728 120.7588075880687 C116.7473118279565 113.82113821137528 101.86881720430058 113.38753387533194 88.61935483870927 119.56639566394946 C67.65913978494598 129.43089430893536 57.45053763440833 154.14634146340552 65.48709677419322 175.9349593495831 C72.00322580645133 193.7127371273597 89.05376344085988 205.5284552845407 107.95053763440816 205.5284552845407 C108.27634408602111 205.5284552845407 108.49354838709641 205.5284552845407 108.81935483870919 205.5284552845407 C108.81935483870919 205.5284552845407 185.6010752688166 196.0975609755979 185.6010752688166 196.0975609755979 C185.6010752688166 196.0975609755979 185.6010752688166 196.0975609755979 185.6010752688166 196.0975609755979 C186.5784946236553 195.9891598915874 187.55591397849383 195.66395663955487 188.53333333333273 195.44715447153305 C188.20752688171962 194.79674796746815 187.88172043010672 194.1463414634032 187.55591397849383 193.49593495933826 C186.79569892473063 193.7127371273597 186.035483870967 193.9295392953817 185.27526881720357 194.03794037939238 C185.27526881720357 194.03794037939238 108.71075268817165 203.46883468833497 108.71075268817165 203.46883468833497 C90.35698924731143 203.7940379403673 73.84946236559112 192.52032520324073 67.55053763440837 175.28455284551805 C59.948387096773956 154.5799457994488 69.61397849462335 131.05691056909802 89.596774193548 121.62601626015541 C95.46129032258023 118.80758807587378 101.76021505376298 117.50677506774376 107.95053763440816 117.50677506774376 C115.00967741935439 117.50677506774376 122.06881720430061 119.24119241191694 128.4763440860211 122.81842818427455 C128.4763440860211 122.81842818427455 191.1397849462357 157.9403794037847 191.1397849462357 157.9403794037847 C196.678494623655 160.7588075880664 200.47956989247237 166.07046070459737 201.45698924731113 172.14092140920405 C201.89139784946155 174.63414634145312 201.67419354838643 177.12737127370218 201.13118279569815 179.62059620595133 C201.13118279569815 179.62059620595133 201.13118279569815 179.62059620595133 201.13118279569815 179.62059620595133 C201.13118279569815 179.62059620595133 201.13118279569815 179.62059620595133 201.13118279569815 179.62059620595133 C200.47956989247237 182.00542005418956 199.5021505376337 184.39024390242795 197.87311827956904 186.44986449863433 C195.70107526881642 189.37669376692648 192.87741935483794 191.54471544714312 189.61935483870897 192.8455284552734 C189.9451612903218 193.49593495933826 190.2709677419347 194.1463414634032 190.5967741935476 194.79674796746815 C194.18064516128973 193.27913279131653 197.22150537634323 190.8943089430781 199.61075268817137 187.75067750676396 C200.37096774193475 186.77506775066675 201.0225806451606 185.69105691055802 201.5655913978489 184.6070460704499 C201.45698924731113 188.83468834687227 200.37096774193475 193.7127371273597 198.3075268817196 198.59078590784742 C196.46129032257988 203.0352303522916 193.85483870967673 207.0460704606924 191.1397849462357 209.9728997289848 C190.81397849462286 211.05691056909336 190.2709677419347 212.14092140920167 189.8365591397841 213.1165311652991 C189.7279569892465 213.5501355013426 189.7279569892465 213.98373983738557 189.61935483870897 214.41734417342911 C193.7462365591391 211.27371273711472 197.65591397849394 205.85365853657322 200.37096774193483 199.45799457993408 C203.41182795698842 192.41192411922958 204.49784946236463 185.04065040649286 203.3032258064507 179.72899728996214 C203.84623655913887 177.01897018969132 203.95483870967672 174.41734417343164 203.6290322580636 171.70731707316057 Z" vector-effect="non-scaling-stroke"/></defs> <path style="stroke-width: 0; stroke-linecap: butt; stroke-linejoin: miter; fill: rgb(255, 255, 255); transform-box: fill-box; transform-origin: center center; transform: rotate(730deg);" d="M202.446368120305 120.85154344174134 C201.36034661492874 114.02227514905871 197.124862743961 108.16861661247412 191.04314231385376 105.02498517615959 C191.04314231385376 105.02498517615959 128.3797014536387 69.90303395664932 128.3797014536387 69.90303395664932 C115.56464769019789 62.96536457995626 100.68615306654198 62.531760243912686 87.43669070095069 68.71062203253041 C66.47647564718739 78.57512067751622 56.26787349664971 103.29056783198621 64.30443263643463 125.0791857181639 C70.82056166869273 142.85696349594036 87.87109930310129 154.67268165312134 106.7678734966496 154.67268165312134 C107.09367994826255 154.67268165312134 107.31088424933785 154.67268165312134 107.63669070095057 154.67268165312134 C107.63669070095057 154.67268165312134 184.41841113105795 145.24178734417865 184.41841113105795 145.24178734417865 C184.41841113105795 145.24178734417865 184.41841113105795 145.24178734417865 184.41841113105795 145.24178734417865 C185.39583048589668 145.1333862601682 186.37324984073518 144.80818300813553 187.35066919557414 144.59138084011374 C187.02486274396108 143.94097433604884 186.69905629234813 143.29056783198394 186.37324984073518 142.64016132791903 C185.61303478697198 142.85696349594036 184.85281973320843 143.0737656639626 184.092604679445 143.18216674797304 C184.092604679445 143.18216674797304 107.52808855041303 152.61306105691574 107.52808855041303 152.61306105691574 C89.17432510955285 152.93826430894796 72.66679822783254 141.66455157182145 66.36787349664979 124.428779214099 C58.76572295901536 103.72417216802978 68.43131435686473 80.20113693767871 88.41411005578942 70.77024262873601 C94.27862618482163 67.95181444445461 100.57755091600438 66.65100143632435 106.7678734966496 66.65100143632435 C113.82701328159578 66.65100143632435 120.88615306654202 68.38541878049773 127.29367994826248 71.96265455285538 C127.29367994826248 71.96265455285538 189.95712080847704 107.08460577236565 189.95712080847704 107.08460577236565 C195.49583048589636 109.90303395664705 199.29690575471375 115.21468707317808 200.27432510955248 121.28514777778491 C200.70873371170296 123.77837271003409 200.49152941062778 126.27159764228281 199.94851865793953 128.764822574532 C199.94851865793953 128.764822574532 199.94851865793953 128.764822574532 199.94851865793953 128.764822574532 C199.94851865793953 128.764822574532 199.94851865793953 128.764822574532 199.94851865793953 128.764822574532 C199.29690575471375 131.14964642277027 198.31948639987513 133.53447027100856 196.6904541418104 135.59409086721507 C194.51841113105786 138.52092013550737 191.69475521707932 140.68894181572387 188.4366907009504 141.98975482385413 C188.76249715256324 142.64016132791903 189.08830360417608 143.29056783198394 189.41411005578902 143.94097433604884 C192.9979810235311 142.42335915989725 196.0388412385846 140.03853531165896 198.42808855041278 136.89490387534488 C199.1883036041762 135.91929411924775 199.839916507402 134.83528327913882 200.38292726009024 133.7512724390308 C200.27432510955248 137.9789147154529 199.1883036041762 142.85696349594036 197.124862743961 147.73501227642828 C195.2786261848213 152.17945672087217 192.67217457191816 156.1902968292734 189.95712080847704 159.1171260975657 C189.6313143568642 160.20113693767416 189.08830360417608 161.28514777778264 188.65389500202548 162.26075753387977 C188.54529285148794 162.69436186992334 188.54529285148794 163.12796620596646 188.4366907009504 163.56157054201003 C192.5635724213805 160.4179391056955 196.47324984073532 154.99788490515402 199.1883036041762 148.60222094851497 C202.22916381922983 141.55615048781056 203.31518532460598 134.18487677507346 202.12056166869218 128.87322365854288 C202.6635724213803 126.16319655827192 202.77217457191807 123.5615705420123 202.446368120305 120.85154344174134 Z" vector-effect="non-scaling-stroke"/></g><g><defs><path id="path-1747222392633733" d="M187.44731182795726 189.48509485095184 C187.44731182795726 189.48509485095184 144.0064516129035 132.35772357723806 144.0064516129035 132.35772357723806 C134.9924731182798 120.8672086720889 121.52580645161301 114.57994579946008 106.97311827957002 115.01355013550332 C83.7322580645163 115.66395663956847 64.50967741935493 134.30894308943323 63.20645161290331 157.50677506775338 C62.12043010752707 176.69376693767236 73.30645161290334 194.57994579946134 91.11720430107539 201.84281842818768 C91.11720430107539 201.84281842818768 165.2924731182799 223.73983739837786 165.2924731182799 223.73983739837786 C165.2924731182799 223.73983739837786 165.2924731182799 223.73983739837786 165.2924731182799 223.73983739837786 C166.48709677419393 224.0650406504105 167.68172043010784 224.28184281843195 168.87634408602185 224.39024390244305 C168.87634408602185 223.63143631436685 168.87634408602185 222.98102981030195 168.87634408602185 222.22222222222618 C167.8989247311831 222.11382113821534 166.81290322580674 222.0054200542043 165.835483870968 221.68021680217197 C165.835483870968 221.68021680217197 91.87741935483876 199.78319783198185 91.87741935483876 199.78319783198185 C74.93548387096784 192.84552845528782 64.29247311827962 175.8265582655857 65.37849462365611 157.61517615176427 C66.68172043010766 135.6097560975633 84.9268817204303 117.83197831978532 106.97311827957002 117.18157181572026 C120.8741935483874 116.74796747967676 133.6892473118282 122.81842818428409 142.26881720430143 133.76693766937905 C142.26881720430143 133.76693766937905 185.70967741935507 190.89430894309268 185.70967741935507 190.89430894309268 C189.6193548387099 195.6639566395698 191.03118279569935 202.05962059620933 189.51075268817237 208.02168021680598 C188.20752688172078 213.00813008130436 185.0580645161295 217.12737127371685 180.6053763440864 219.7289972899767 C177.67311827957028 221.46341463415035 174.52365591397887 222.33062330623696 171.15698924731217 222.33062330623696 C171.15698924731217 223.08943089431295 171.15698924731217 223.73983739837792 171.15698924731217 224.49864498645385 C174.84946236559168 224.49864498645385 178.43333333333362 223.5230352303562 181.69139784946273 221.57181571816093 C183.2118279569896 220.70460704607424 184.623655913979 219.6205962059658 185.92688172043046 218.319783197836 C184.18924731182832 221.89701897019356 181.58279569892514 225.58265582656225 178.21612903225838 228.94308943089837 C174.41505376344122 232.73712737127767 170.17956989247352 235.66395663957064 166.2698924731186 237.2899728997332 C165.1838709677423 238.5907859078633 163.98924731182848 239.6747967479717 162.6860215053766 240.65040650406937 C162.6860215053766 240.65040650406937 162.6860215053766 240.65040650406937 162.6860215053766 240.65040650406937 C168.0075268817207 239.6747967479717 174.41505376344122 235.88075880759203 179.73655913978536 230.46070460705027 C185.2752688172047 224.93224932249697 189.0763440860218 218.319783197836 189.94516129032297 212.8997289972937 C190.70537634408637 211.49051490515288 191.24838709677474 209.9728997290011 191.68279569892528 208.45528455284926 C193.4204301075272 201.84281842818768 191.79139784946298 194.68834688347218 187.44731182795726 189.48509485095184 Z" vector-effect="non-scaling-stroke"/></defs> <path style="stroke-width: 0; stroke-linecap: butt; stroke-linejoin: miter; fill: rgb(255, 255, 255); transform-box: fill-box; transform-origin: center center; transform: rotate(730deg);" d="M183.91945321808942 137.5384766917673 C183.91945321808942 137.5384766917673 140.4785930030356 80.41110541805347 140.4785930030356 80.41110541805347 C131.4646145084119 68.92059051290425 117.99794784174509 62.63332764027518 103.44525966970212 63.066931976318756 C80.20439945464841 63.71733848038366 60.98181880948704 82.36232493024863 59.67859300303542 105.56015690856884 C58.59257149765915 124.74714877848783 69.77859300303544 142.63332764027655 87.58934569120748 149.89620026900275 C87.58934569120748 149.89620026900275 161.76461450841202 171.79321923919315 161.76461450841202 171.79321923919315 C161.76461450841202 171.79321923919315 161.76461450841202 171.79321923919315 161.76461450841202 171.79321923919315 C162.95923816432605 172.11842249122583 164.15386182023997 172.33522465924716 165.348485476154 172.4436257432585 C165.348485476154 171.68481815518226 165.348485476154 171.03441165111735 165.348485476154 170.27560406304156 C164.37106612131515 170.16720297903066 163.28504461593877 170.05880189501977 162.30762526110004 169.7335986429871 C162.30762526110004 169.7335986429871 88.34956074497086 147.83657967279714 88.34956074497086 147.83657967279714 C71.40762526109995 140.89891029610317 60.76461450841168 123.87994010640114 61.850636013788176 105.66855799257974 C63.15386182023974 83.66313793837844 81.39902311056238 65.88536016060061 103.44525966970212 65.23495365653571 C117.34633493851948 64.80134932049214 130.16138870196028 70.87181002509942 138.74095859443355 81.82031951019417 C138.74095859443355 81.82031951019417 182.18181880948714 138.947690783908 182.18181880948714 138.947690783908 C186.09149622884195 143.71733848038502 187.5033241858315 150.11300243702453 185.9828940783044 156.07506205762138 C184.67966827185285 161.06151192211973 181.53020590626159 165.1807531145323 177.07751773421853 167.78237913079192 C174.14525966970234 169.51679647496576 170.99579730411097 170.38400514705245 167.6291306374443 170.38400514705245 C167.6291306374443 171.14281273512825 167.6291306374443 171.79321923919315 167.6291306374443 172.55202682726895 C171.3216037557238 172.55202682726895 174.90547472346577 171.57641707117136 178.1635392395948 169.6251975589762 C179.68396934712166 168.7579888868895 181.0957973041111 167.67397804678103 182.39902311056255 166.37316503865122 C180.6613887019604 169.95040081100888 178.05493708905726 173.63603766737742 174.68827042239047 176.99647127171374 C170.88719515357332 180.79050921209318 166.65171128260556 183.71733848038593 162.74203386325064 185.34335474054842 C161.65601235787437 186.64416774867868 160.46138870196057 187.72817858878716 159.15816289550867 188.70378834488474 C159.15816289550867 188.70378834488474 159.15816289550867 188.70378834488474 159.15816289550867 188.70378834488474 C164.4796682718528 187.72817858878716 170.88719515357332 183.93414064840726 176.20870052991745 178.5140864478658 C181.74741020733677 172.98563116331206 185.54848547615393 166.37316503865122 186.417302680455 160.95311083810884 C187.17751773421844 159.54389674596814 187.7205284869068 158.02628156981655 188.1549370890574 156.5086663936645 C189.89257149765933 149.89620026900275 188.26353923959505 142.74172872428744 183.91945321808942 137.5384766917673 Z" vector-effect="non-scaling-stroke"/></g><g><defs><path id="path-1747222392633731" d="M170.28817204301058 217.34417344174227 C170.28817204301058 217.34417344174227 151.9344086021504 148.07588075881284 151.9344086021504 148.07588075881284 C148.0247311827955 134.092140921414 137.92473118279554 123.03523035230785 124.34946236559144 117.94037940379836 C102.62903225806441 109.7018970189741 77.75913978494623 119.67479674797173 67.65913978494615 140.5962059620646 C59.29677419354827 157.94037940379965 62.880645161290296 178.64498644987097 76.56451612903213 192.1951219512264 C76.56451612903213 192.1951219512264 136.7301075268816 240.75880758808438 136.7301075268816 240.75880758808438 C136.7301075268816 240.75880758808438 136.7301075268816 240.75880758808438 136.7301075268816 240.75880758808438 C137.7075268817203 241.51761517616015 138.79354838709662 242.1680216802255 139.77096774193532 242.71002710027963 C140.09677419354816 242.05962059621467 140.31397849462346 241.40921409214965 140.5311827956987 240.65040650407346 C139.66236559139767 240.21680216803023 138.79354838709662 239.67479674797568 137.92473118279554 239.024390243911 C137.92473118279554 239.024390243911 77.86774193548379 190.56910569106364 77.86774193548379 190.56910569106364 C64.94408602150534 177.66937669377307 61.57741935483868 157.94037940379965 69.50537634408599 141.4634146341514 C79.06236559139776 121.62601626016692 102.73763440860203 112.08672086721276 123.48064516129024 119.8915989159934 C136.51290322580627 124.76964769648141 146.0698924731182 135.28455284553323 149.76236559139764 148.617886178867 C149.76236559139764 148.617886178867 168.116129032258 217.9945799458071 168.116129032258 217.9945799458071 C169.96236559139757 223.9566395664035 168.767741935484 230.35230352304325 165.0752688172043 235.33875338754225 C161.9258064516127 239.45799457995446 157.47311827956966 242.05962059621444 152.36881720430085 242.71002710027963 C149.00215053763432 243.14363143632312 145.7440860215053 242.71002710027963 142.70322580645146 241.51761517616015 C142.48602150537624 242.1680216802255 142.16021505376327 242.92682926830145 141.9430107526881 243.57723577236655 C144.44086021505376 244.55284552846408 147.15591397849437 245.09485094851826 149.87096774193526 245.09485094851826 C150.84838709677416 245.09485094851826 151.82580645161278 244.9864498645074 152.8032258064514 244.87804878049667 C154.4322580645159 244.66124661247468 155.95268817204288 244.22764227643154 157.47311827956975 243.68563685637722 C154.4322580645159 246.5040650406593 150.305376344086 248.99728997290848 145.52688172042997 250.94850948510367 C140.74838709677394 252.79132791328826 135.96989247311814 253.87533875339653 131.843010752688 253.87533875339653 C130.21397849462363 254.63414634147253 128.47634408602138 255.28455284553758 126.73870967741934 255.6097560975702 C128.15053763440844 255.9349593496027 129.77956989247306 256.0433604336135 131.51720430107522 256.0433604336135 C136.07849462365576 256.0433604336135 141.2913978494623 254.95934959350495 146.39569892473108 252.89972899729904 C153.7806451612902 249.9728997290061 159.86236559139766 245.42005420055065 162.68602150537626 240.75880758808438 C164.31505376344063 239.566395663965 165.72688172043024 238.15718157182428 167.03010752688178 236.53116531166154 C170.93978494623627 231.00271002710855 172.243010752688 223.84823848239287 170.28817204301058 217.34417344174227 Z" vector-effect="non-scaling-stroke"/></defs> <path style="stroke-width: 0; stroke-linecap: butt; stroke-linejoin: miter; fill: rgb(255, 255, 255); transform-box: fill-box; transform-origin: center center; transform: rotate(730deg);" d="M165.5789137872158 163.44570832341333 C165.5789137872158 163.44570832341333 147.22515034635558 94.17741564048356 147.22515034635558 94.17741564048356 C143.3154729270007 80.19367580308472 133.21547292700075 69.13676523397862 119.64020410979663 64.04191428546937 C97.9197740022696 55.80343190064514 73.04988152915143 65.77633162964275 62.949881529151355 86.69774084373557 C54.587515937753494 104.04191428547074 58.171386905495524 124.74652133154177 71.85525787323735 138.2966568328975 C71.85525787323735 138.2966568328975 132.02084927108683 186.86034246975532 132.02084927108683 186.86034246975532 C132.02084927108683 186.86034246975532 132.02084927108683 186.86034246975532 132.02084927108683 186.86034246975532 C132.9982686259255 187.61915005783112 134.08429013130183 188.26955656189648 135.06170948614056 188.8115619819505 C135.3875159377534 188.1611554778856 135.6047202388287 187.51074897382068 135.82192453990388 186.75194138574443 C134.9531073356029 186.3183370497013 134.08429013130183 185.7763316296464 133.21547292700075 185.12592512558194 C133.21547292700075 185.12592512558194 73.15848367968897 136.67064057273456 73.15848367968897 136.67064057273456 C60.23482776571052 123.77091157544373 56.8681610990439 104.04191428547074 64.79611808829122 87.56494951582226 C74.353107335603 67.72755114183792 98.02837615280725 58.188255748883876 118.77138690549543 65.99313379766409 C131.80364497001148 70.87118257815246 141.36063421732342 81.38608772720409 145.05310733560282 94.71942106053802 C145.05310733560282 94.71942106053802 163.40687077646317 164.09611482747778 163.40687077646317 164.09611482747778 C165.25310733560275 170.05817444807462 164.05848367968918 176.45383840471413 160.36601056140955 181.44028826921294 C157.21654819581784 185.55952946162552 152.7638600237749 188.16115547788513 147.65955894850606 188.8115619819505 C144.2928922818395 189.24516631799406 141.03482776571047 188.8115619819505 137.99396755065663 187.61915005783112 C137.77676324958145 188.26955656189648 137.4509567979685 189.02836414997228 137.23375249689332 189.67877065403763 C139.73160195925897 190.65438041013476 142.44665572269957 191.19638583018923 145.16170948614047 191.19638583018923 C146.13912884097942 191.19638583018923 147.11654819581793 191.08798474617834 148.09396755065666 190.97958366216744 C149.72299980872106 190.76278149414566 151.24342991624815 190.32917715810254 152.763860023775 189.78717173804807 C149.72299980872106 192.60559992233038 145.59611808829118 195.09882485457956 140.81762346463518 197.05004436677473 C136.03912884097917 198.892862794959 131.26063421732334 199.97687363506748 127.13375249689318 199.97687363506748 C125.50472023882884 200.73568122314327 123.76708583022662 201.38608772720863 122.02945142162457 201.71129097924086 C123.44127937861367 202.03649423127354 125.0703116366783 202.14489531528443 126.80794604528046 202.14489531528443 C131.36923636786094 202.14489531528443 136.58213959366753 201.06088447517595 141.68644066893626 199.0012638789699 C149.0713869054954 196.07443461067714 155.15310733560284 191.52158908222145 157.9767632495815 186.86034246975532 C159.6057955076459 185.66793054563595 161.01762346463545 184.25871645349525 162.320849271087 182.6327001933323 C166.23052669044148 177.1042449087795 167.53375249689327 169.94977336406373 165.5789137872158 163.44570832341333 Z" vector-effect="non-scaling-stroke"/></g><g><defs><path id="path-1747222392633729" d="M138.9021505376334 127.04607046070214 C121.96021505376248 111.21951219511988 95.13548387096706 111.00271002709819 77.86774193548327 126.61246612465888 C63.53225806451568 139.51219512194857 58.97096774193499 159.99999999999702 66.4645161290318 177.77777777777442 C66.4645161290318 177.77777777777442 103.71505376344011 245.4200542005373 103.71505376344011 245.4200542005373 C103.71505376344011 245.4200542005373 103.71505376344011 245.4200542005373 103.71505376344011 245.4200542005373 C104.3666666666659 246.50406504064568 105.01827956989167 247.47967479674332 105.88709677419283 248.45528455284077 C106.43010752688092 247.91327913278664 106.97311827956919 247.47967479674332 107.40752688171956 246.82926829267817 C106.75591397849387 246.07046070460245 106.1043010752681 245.2032520325159 105.66989247311756 244.3360433604288 C105.66989247311756 244.3360433604288 68.41935483870915 176.80216802167686 68.41935483870915 176.80216802167686 C61.36021505376304 159.9999999999971 65.70430107526833 140.48780487804612 79.2795698924725 128.23848238482154 C95.67849462365524 113.4959349593474 121.19999999999918 113.60433604335836 137.38172043010647 128.67208672086477 C147.5903225806441 138.10298102980775 152.47741935483756 151.4363143631408 150.84838709677317 165.2032520325174 C150.84838709677317 165.2032520325174 141.50860215053666 236.31436314362716 141.50860215053666 236.31436314362716 C140.96559139784856 242.49322493224483 137.38172043010647 248.02168021679734 132.0602150537625 251.16531165311187 C129.88817204300983 252.4661246612417 127.60752688171952 253.22493224931782 125.21827956989151 253.55013550135033 C125.21827956989151 253.55013550135033 125.21827956989151 253.55013550135033 125.21827956989151 253.55013550135033 C125.21827956989151 253.55013550135033 125.21827956989151 253.55013550135033 125.21827956989151 253.55013550135033 C122.72043010752608 253.98373983739359 120.1139784946227 253.76693766937163 117.50752688171957 253.11653116530675 C114.24946236559053 252.24932249322015 111.31720430107444 250.62330623305755 109.03655913978409 248.34688346882996 C108.6021505376336 248.88888888888408 108.05913978494537 249.43089430893843 107.51612903225725 249.86449864498164 C110.1225806451605 252.357723577231 113.38064516128956 254.20054200541543 116.96451612903132 255.1761517615127 C118.1591397849453 255.5013550135452 119.35376344085934 255.71815718156708 120.54838709677327 255.82655826557792 C116.74731182795611 257.2357723577187 112.0774193548379 257.9945799457949 107.19032258064436 257.9945799457949 C102.08602150537554 257.9945799457949 97.19892473118199 257.12737127370775 93.28924731182725 255.60975609755633 C93.0720430107521 255.60975609755633 92.96344086021445 255.60975609755633 92.7462365591391 255.60975609755633 C90.89999999999921 255.60975609755633 89.16236559139725 255.39295392953483 87.42473118279507 254.9593495934911 C91.87741935483814 258.2113821138162 99.26236559139717 260.16260162601156 107.19032258064436 260.16260162601156 C114.57526881720335 260.16260162601156 121.52580645161196 258.42818428183784 125.97849462365498 255.60975609755633 C128.4763440860205 255.1761517615127 130.97419354838607 254.30894308942615 133.1462365591389 253.00813008129612 C139.1193548387087 249.53929539294936 143.0290322580634 243.36043360433152 143.68064516128936 236.53116531164886 C143.68064516128936 236.53116531164886 153.02043010752573 165.42005420053906 153.02043010752573 165.42005420053906 C154.7580645161278 151.00271002709755 149.5451612903216 137.01897018969925 138.9021505376334 127.04607046070214 Z" vector-effect="non-scaling-stroke"/></defs> <path style="stroke-width: 0; stroke-linecap: butt; stroke-linejoin: miter; fill: rgb(255, 255, 255); transform-box: fill-box; transform-origin: center center; transform: rotate(730deg);" d="M133.97426037934963 71.54282018946697 C117.03232489547872 55.71626192388476 90.20759371268326 55.49945975586297 72.93985177719946 71.10921585342385 C58.604367906231914 84.0089448507133 54.04307758365121 104.49674972876164 61.53662597074799 122.27452750653947 C61.53662597074799 122.27452750653947 98.78716360515631 189.9168039293022 98.78716360515631 189.9168039293022 C98.78716360515631 189.9168039293022 98.78716360515631 189.9168039293022 98.78716360515631 189.9168039293022 C99.43877650838215 191.00081476941068 100.09038941160787 191.97642452550826 100.95920661590901 192.9520342816054 C101.50221736859714 192.41002886155138 102.04522812128539 191.97642452550826 102.47963672343576 191.3260180214429 C101.82802382021009 190.5672104333671 101.17641091698431 189.70000176128087 100.74200231483377 188.83279308919373 C100.74200231483377 188.83279308919373 63.49146468042534 121.29891775044189 63.49146468042534 121.29891775044189 C56.43232489547927 104.4967497287621 60.77641091698456 84.98455460681089 74.35167973418868 72.73523211358633 C90.75060446537145 57.99268468811215 116.2721098417154 58.10108577212304 132.45383027182265 73.16883644962945 C142.66243242236033 82.5997307585726 147.54952919655375 95.93306409190563 145.92049693848935 109.70000176128224 C145.92049693848935 109.70000176128224 136.58071199225287 180.8111128723922 136.58071199225287 180.8111128723922 C136.03770123956474 186.98997466100946 132.45383027182265 192.51842994556227 127.13232489547875 195.6620613818768 C124.96028188472604 196.96287439000662 122.67963672343575 197.72168197808287 120.29038941160775 198.0468852301151 C120.29038941160775 198.0468852301151 120.29038941160775 198.0468852301151 120.29038941160775 198.0468852301151 C120.29038941160775 198.0468852301151 120.29038941160775 198.0468852301151 120.29038941160775 198.0468852301151 C117.79253994924227 198.4804895661582 115.18608833633891 198.26368739813643 112.57963672343578 197.61328089407152 C109.32157220730676 196.74607222198483 106.38931414279068 195.12005596182235 104.10866898150027 192.84363319759495 C103.67426037934979 193.38563861764897 103.1312496266616 193.92764403770343 102.58823887397347 194.36124837374655 C105.19469048687671 196.85447330599573 108.45275500300579 198.69729173418045 112.03662597074754 199.67290149027758 C113.23124962666151 199.99810474231026 114.42587328257554 200.21490691033205 115.62049693848951 200.32330799434294 C111.81942166967235 201.73252208648364 107.14952919655411 202.4913296745599 102.26243242236058 202.4913296745599 C97.15813134709174 202.4913296745599 92.2710345728982 201.62412100247275 88.36135715354345 200.10650582632115 C88.14415285246832 200.10650582632115 88.03555070193067 200.10650582632115 87.81834640085532 200.10650582632115 C85.97210984171545 200.10650582632115 84.23447543311346 199.88970365829982 82.4968410245113 199.4560993222558 C86.94952919655435 202.70813184258122 94.33447543311337 204.6593513547764 102.26243242236058 204.6593513547764 C109.64737865891959 204.6593513547764 116.59791629332818 202.92493401060256 121.05060446537118 200.10650582632115 C123.54845392773672 199.67290149027758 126.04630339010225 198.8056928181909 128.21834640085513 197.50487981006108 C134.19146468042493 194.03604512171432 138.10114209977962 187.85718333309615 138.75275500300557 181.02791504041352 C138.75275500300557 181.02791504041352 148.092539949242 109.91680392930402 148.092539949242 109.91680392930402 C149.83017435784404 95.49945975586252 144.61727113203779 81.51571991846413 133.97426037934963 71.54282018946697 Z" vector-effect="non-scaling-stroke"/></g><g><defs><path id="path-1747222392632727" d="M149.21935483870925 141.24661246611635 C139.55376344085968 120.21680216801465 114.90107526881678 109.81029810297464 92.96344086021463 117.6151761517547 C74.82688172042985 124.11924119240469 62.77204301075244 141.35501355012727 62.88064516129006 160.54200542004477 C62.88064516129006 160.54200542004477 71.56881720430084 237.28997289971517 71.56881720430084 237.28997289971517 C71.56881720430084 237.28997289971517 71.56881720430084 237.28997289971517 71.56881720430084 237.28997289971517 C71.67741935483843 238.15718157180194 71.89462365591376 239.02439024388863 72.11182795698903 239.89159891597524 C72.76344086021481 239.5663956639427 73.41505376344054 239.2411924119102 74.06666666666635 238.80758807586685 C73.95806451612876 238.26558265581266 73.84946236559107 237.6151761517479 73.74086021505339 237.07317073169332 C73.74086021505339 237.07317073169332 65.16129032258038 160.43360433603394 65.16129032258038 160.43360433603394 C65.05268817204279 142.222222222214 76.56451612903187 125.74525745256717 93.72365591397809 119.67479674796053 C114.57526881720389 112.3035230352238 138.03333333333276 122.16802168020975 147.26451612903153 142.22222222221413 C153.02043010752618 154.79674796747068 152.47741935483813 168.99728997289 145.7440860215048 181.13821138210332 C145.7440860215048 181.13821138210332 109.9053763440856 243.25203252031093 109.9053763440856 243.25203252031093 C107.0817204301072 248.7804878048637 101.65161290322541 252.57452574524257 95.56989247311785 253.44173441732923 C86.44731182795658 254.74254742545946 77.86774193548352 249.32249322491782 74.71827956989223 240.9756097560836 C74.06666666666631 241.30081300811602 73.41505376344054 241.73441734415917 72.76344086021481 241.9512195121813 C74.60967741935463 246.93766937667942 78.30215053763412 250.94850948508028 82.86344086021468 253.3333333333186 C78.95376344085987 253.3333333333186 74.39247311827926 252.3577235772211 69.5053763440857 250.5149051490369 C64.40107526881692 248.5636856368418 60.056989247311535 245.85365853657112 56.90752688172021 242.92682926827834 C55.27849462365567 242.3848238482243 53.758064516128776 241.6260162601485 52.346236559139506 240.75880758806179 C52.346236559139506 240.75880758806179 52.2376344086019 240.75880758806179 52.2376344086019 240.75880758806179 C55.27849462365567 245.311653116517 61.36021505376314 249.756097560961 68.74516129032227 252.57452574524257 C73.95806451612873 254.52574525743788 78.73655913978459 255.60975609754607 82.86344086021468 255.60975609754607 C84.4924731182792 255.60975609754607 85.9043010752685 255.50135501353535 87.31612903225766 255.17615176150272 C89.05376344085983 255.60975609754607 90.89999999999954 255.93495934957852 92.7462365591394 255.93495934957852 C93.72365591397809 255.93495934957852 94.7010752688168 255.82655826556802 95.78709677419312 255.71815718155725 C102.6290322580641 254.74254742545946 108.60215053763392 250.5149051490369 111.75161290322538 244.44444444443022 C111.75161290322538 244.44444444443022 147.5903225806444 182.33062330622263 147.5903225806444 182.33062330622263 C154.7580645161284 169.43089430893326 155.30107526881662 154.47154471543814 149.21935483870925 141.24661246611635 Z" vector-effect="non-scaling-stroke"/></defs> <path style="stroke-width: 0; stroke-linecap: butt; stroke-linejoin: miter; fill: rgb(255, 255, 255); transform-box: fill-box; transform-origin: center center; transform: rotate(730deg);" d="M144.74021198070943 84.85488571952737 C135.0746205828599 63.82507542142548 110.42193241081696 53.418571356385655 88.48429800221481 61.223449405165866 C70.34773886243005 67.72751444581581 58.29290015275262 84.96328680353827 58.40150230329027 104.15027867345589 C58.40150230329027 104.15027867345589 67.08967434630102 180.89824615312637 67.08967434630102 180.89824615312637 C67.08967434630102 180.89824615312637 67.08967434630102 180.89824615312637 67.08967434630102 180.89824615312637 C67.19827649683862 181.76545482521306 67.41548079791392 182.63266349729975 67.63268509898921 183.49987216938598 C68.284298002215 183.17466891735376 68.93591090544072 182.84946566532108 69.58752380866656 182.41586132927796 C69.47892165812891 181.8738559092235 69.37031950759126 181.22344940515904 69.26171735705356 180.68144398510412 C69.26171735705356 180.68144398510412 60.68214746458057 104.041877589445 60.68214746458057 104.041877589445 C60.573545314042974 85.83049547562496 72.08537327103204 69.3535307059783 89.24451305597825 63.28307000137147 C110.09612595920407 55.91179628863483 133.55419047533292 65.77629493362065 142.78537327103174 85.83049547562496 C148.54128724952636 98.40502122088174 147.99827649683834 112.605563226301 141.264943163505 124.74648463551421 C141.264943163505 124.74648463551421 105.42623348608578 186.86030577372185 105.42623348608578 186.86030577372185 C102.6025775721074 192.38876105827467 97.17247004522562 196.18279899865365 91.09074961511806 197.05000767074034 C81.96816896995676 198.3508206788706 73.38859907748372 192.93076647832868 70.2391367118924 184.58388300949446 C69.5875238086665 184.90908626152714 68.93591090544072 185.34269059757025 68.284298002215 185.5594927655925 C70.1305345613548 190.5459426300904 73.82300767963432 194.55678273849117 78.38429800221485 196.94160658672945 C74.47462058286004 196.94160658672945 69.91333026027945 195.96599683063187 65.02623348608586 194.12317840244805 C59.921932410817135 192.17195889025288 55.57784638931173 189.46193178998192 52.42838402372041 186.53510252168917 C50.79935176565584 185.99309710163516 49.27892165812898 185.23428951355936 47.86709370113971 184.36708084147267 C47.86709370113971 184.36708084147267 47.75849155060206 184.36708084147267 47.75849155060206 184.36708084147267 C50.79935176565584 188.9199263699279 56.881072195763295 193.3643708143718 64.26601843232243 196.18279899865365 C69.47892165812891 198.13401851084882 74.2574162817848 199.21802935095684 78.38429800221485 199.21802935095684 C80.01333026027936 199.21802935095684 81.42515821726869 199.1096282669464 82.83698617425785 198.78442501491372 C84.57462058286 199.21802935095684 86.4208571419997 199.54323260298952 88.26709370113957 199.54323260298952 C89.24451305597825 199.54323260298952 90.22193241081698 199.43483151897908 91.3079539161933 199.3264304349682 C98.1498894000643 198.3508206788706 104.1230076796341 194.12317840244805 107.27247004522553 188.05271769784122 C107.27247004522553 188.05271769784122 143.11117972264458 125.93889655963358 143.11117972264458 125.93889655963358 C150.27892165812852 113.03916756234412 150.82193241081677 98.07981796884906 144.74021198070943 84.85488571952737 Z" vector-effect="non-scaling-stroke"/></g><g><defs><path id="path-1747222392632725" d="M110.99139784946155 115.77235772357848 C91.76881720430043 114.36314363143761 73.74086021505325 125.31165311653258 66.13870967741893 142.9810298102996 C66.13870967741893 142.9810298102996 43.115053763440564 216.69376693767185 43.115053763440564 216.69376693767185 C43.115053763440564 216.69376693767185 43.115053763440564 216.69376693767185 43.115053763440564 216.69376693767185 C42.7892473118277 217.8861788617909 42.57204301075242 219.0785907859104 42.4634408602148 220.27100271002942 C43.22365591397823 220.27100271002942 43.87526881720399 220.27100271002942 44.63548387096743 220.27100271002942 C44.74408602150508 219.2953929539319 44.96129032258037 218.21138211382342 45.17849462365558 217.23577235772592 C45.17849462365558 217.23577235772592 68.20215053763393 143.73983739837556 68.20215053763393 143.73983739837556 C75.47849462365538 126.93766937669496 92.5290322580639 116.5311653116544 110.8827956989239 117.94037940379533 C132.92903225806367 119.56639566395795 150.4139784946226 137.994579945801 150.73978494623566 160.10840108401274 C150.95698924731076 173.98373983740035 144.76666666666563 186.77506775067957 133.68924731182707 195.12195121951424 C133.68924731182707 195.12195121951424 75.80430107526828 237.61517615176402 75.80430107526828 237.61517615176402 C70.91720430107476 241.51761517615418 64.50967741935438 242.8184281842845 58.53655913978453 241.08401084011086 C53.54086021505344 239.67479674797016 49.413978494623315 236.422764227645 46.916129032257764 231.97831978320042 C45.28709677419324 229.05149051490778 44.418279569892164 225.79945799458218 44.418279569892164 222.5474254742573 C44.092473118279294 222.5474254742573 43.76666666666642 222.5474254742573 43.4408602150535 222.5474254742573 C43.006451612902985 222.5474254742573 42.57204301075243 222.5474254742573 42.246236559139554 222.5474254742573 C42.246236559139554 226.23306233062587 43.11505376344059 229.81029810298335 44.96129032258039 233.0623306233088 C45.721505376343785 234.4715447154497 46.69892473118251 235.66395663956894 47.676344086021174 236.8563685636882 C44.092473118279294 235.12195121951478 40.29139784946209 232.30352303523284 36.92473118279545 228.9430894308967 C33.12365591397829 225.04065040650647 30.191397849462188 220.70460704607282 28.67096774193529 216.69376693767185 C27.802150537634265 215.8265582655847 26.93333333333316 215.0677506775092 26.064516129032082 214.30894308943317 C25.95591397849448 214.20054200542248 25.73870967741919 214.09214092141133 25.630107526881563 213.98373983740072 C26.824731182795528 219.186991869921 30.408602150537423 225.14905149051708 35.512903225806255 230.35230352303788 C40.83440860215028 235.7723577235798 47.13333333333305 239.67479674797016 52.45483870967709 240.65040650406755 C54.1924731182792 241.73441734417605 56.03870967741897 242.60162601626288 58.102150537634024 243.1436314363169 C60.05698924731147 243.68563685637145 61.90322580645127 243.90243902439258 63.8580645161286 243.90243902439258 C68.63655913978452 243.90243902439258 73.41505376344038 242.2764227642305 77.21612903225757 239.24119241192676 C77.21612903225757 239.24119241192676 134.99247311827864 196.74796747967673 134.99247311827864 196.74796747967673 C146.61290322580558 187.9674796747987 153.1290322580634 174.52574525745433 152.91182795698813 160.00000000000156 C152.58602150537524 136.9105691056925 134.23225806451518 117.39837398374117 110.99139784946155 115.77235772357848 Z" vector-effect="non-scaling-stroke"/></defs> <path style="stroke-width: 0; stroke-linecap: butt; stroke-linejoin: miter; fill: rgb(255, 255, 255); transform-box: fill-box; transform-origin: center center; transform: rotate(730deg);" d="M107.70858276506749 57.11459775400817 C88.4860021199064 55.70538366186747 70.45804513065923 66.65389314696222 62.855894593024914 84.32326984072961 C62.855894593024914 84.32326984072961 39.832238679046554 158.03600696810145 39.832238679046554 158.03600696810145 C39.832238679046554 158.03600696810145 39.832238679046554 158.03600696810145 39.832238679046554 158.03600696810145 C39.50643222743366 159.22841889222082 39.289227926358365 160.42083081634019 39.18062577582077 161.6132427404591 C39.940840829584204 161.6132427404591 40.592453732809986 161.6132427404591 41.35266878657342 161.6132427404591 C41.46127093711107 160.63763298436152 41.678475238186365 159.55362214425304 41.89567953926155 158.5780123881559 C41.89567953926155 158.5780123881559 64.91933545323991 85.0820774288054 64.91933545323991 85.0820774288054 C72.19567953926133 68.2799094071247 89.24621717366989 57.873405342084425 107.59998061452984 59.282619434225126 C129.64621717366964 60.90863569438761 147.13116341022862 79.3368199762308 147.45696986184169 101.45064111444253 C147.67417416291676 115.32597986783003 141.4838515822716 128.1173077811095 130.40643222743302 136.46419124994418 C130.40643222743302 136.46419124994418 72.52148599087423 178.9574161821938 72.52148599087423 178.9574161821938 C67.63438921668074 182.85985520658414 61.226862334960344 184.1606682147144 55.253744055390484 182.42625087054057 C50.25804513065941 181.01703677839987 46.131163410229306 177.7650042580749 43.63331394786371 173.3205598136301 C42.0042816897992 170.3937305453378 41.13546448549812 167.14169802501192 41.13546448549812 163.88966550468695 C40.809658033885285 163.88966550468695 40.48385158227239 163.88966550468695 40.158045130659445 163.88966550468695 C39.72363652850896 163.88966550468695 39.28922792635842 163.88966550468695 38.96342147474553 163.88966550468695 C38.96342147474553 167.5753023610555 39.832238679046554 171.15253813341315 41.678475238186365 174.40457065373857 C42.43869029194974 175.81378474587973 43.41610964678847 177.00619666999864 44.393529001627144 178.198608594118 C40.809658033885285 176.46419124994463 37.00858276506807 173.64576306566278 33.641916098401396 170.28532946132646 C29.840840829584238 166.38289043693612 26.90858276506816 162.04684707650267 25.38815265754124 158.03600696810145 C24.519335453240217 157.1687982960143 23.650518248939136 156.40999070793896 22.781701044638055 155.65118311986316 C22.673098894100463 155.54278203585227 22.455894593025164 155.43438095184092 22.347292442487515 155.32597986783048 C23.541916098401487 160.52923190035062 27.125787066143403 166.49129152094702 32.23008814141224 171.6945435534676 C37.55159351775626 177.11459775400954 43.85051824893901 181.01703677839987 49.17202362528303 181.99264653449745 C50.909658033885194 183.07665737460593 52.75589459302495 183.94386604669262 54.81933545324 184.48587146674663 C56.77417416291746 185.0278768868011 58.620410722057215 185.24467905482243 60.57524943173456 185.24467905482243 C65.35374405539051 185.24467905482243 70.13223867904634 183.6186627946604 73.93331394786355 180.58343244235675 C73.93331394786355 180.58343244235675 131.70965803388458 138.09020751010667 131.70965803388458 138.09020751010667 C143.33008814141158 129.30971970522842 149.8462171736694 115.86798528788404 149.6290128725941 101.34224003043119 C149.30320642098116 78.25280913612232 130.94944298012115 58.740614014171115 107.70858276506749 57.11459775400817 Z" vector-effect="non-scaling-stroke"/></g><g><defs><path id="path-1747222392632723" d="M128.04193548387036 120.43360433604607 C110.77419354838646 111.8699186991895 89.92258064516095 115.12195121951466 76.23870967741901 128.56368563685928 C76.23870967741901 128.56368563685928 26.716129032257943 187.96747967480096 26.716129032257943 187.96747967480096 C26.716129032257943 187.96747967480096 26.716129032257943 187.96747967480096 26.716129032257943 187.96747967480096 C25.955913978494515 188.9430894308985 25.304301075268693 189.91869918699604 24.761290322580535 191.00271002710457 C25.412903225806343 191.32791327913705 26.064516129032143 191.54471544715884 26.824731182795585 191.86991869919137 C27.36774193548374 191.00271002710457 27.802150537634276 190.1355013550177 28.453763440860065 189.37669376694194 C28.453763440860065 189.37669376694194 77.75913978494587 130.08130081301096 77.75913978494587 130.08130081301096 C90.89999999999951 117.28997289973162 110.66559139784889 114.25474254742807 127.06451612903152 122.38482384824125 C146.83010752688116 132.24932249322788 155.9526881720424 155.9891598916023 147.80752688171978 176.47696476965183 C142.70322580645094 189.37669376694194 132.0602150537628 198.80758807588518 118.70215053763381 202.2764227642321 C118.70215053763381 202.2764227642321 48.97956989247292 219.5121951219563 48.97956989247292 219.5121951219563 C43.00645161290304 221.24661246612973 36.59892473118264 219.94579945799939 31.71182795698909 216.1517615176199 C27.693548387096616 213.00813008130567 25.087096774193405 208.45528455285037 24.43548387096764 203.36043360434064 C24.001075268817107 200.00000000000446 24.54408602150525 196.74796747967923 25.738709677419244 193.71273712737562 C25.087096774193405 193.49593495935417 24.43548387096764 193.17073170732147 23.78387096774183 192.8455284552889 C22.372043010752588 196.2059620596249 21.829032258064416 199.89159891599382 22.26344086021495 203.57723577236231 C22.480645161290234 205.63685636856815 23.02365591397841 207.58807588076357 23.78387096774183 209.4308943089478 C20.85161290322571 206.39566395664428 18.245161290322496 202.16802168022144 16.290322580645064 197.39837398374425 C14.118279569892398 191.97831978320215 13.032258064516071 186.55826558266006 13.249462365591327 182.11382113821557 C12.706451612903182 181.02981029810707 12.163440860215019 180.0542005420094 11.511827956989205 178.97018970190106 C11.511827956989205 178.97018970190106 11.511827956989205 178.97018970190106 11.511827956989205 178.97018970190106 C10.534408602150503 184.17344173442157 11.511827956989205 191.32791327913705 14.335483870967678 198.2655826558309 C17.267741935483794 205.31165311653572 21.61182795698915 211.273712737132 26.17311827956979 214.20054200542484 C27.584946236559016 215.2845528455334 28.888172043010623 216.6937669376741 30.4086021505375 217.88617886179367 C34.2096774193547 220.92140921409714 38.87956989247294 222.43902439024907 43.65806451612883 222.43902439024907 C45.61290322580623 222.43902439024907 47.676344086021295 222.1138211382161 49.631182795698685 221.57181571816216 C49.631182795698685 221.57181571816216 119.3537634408597 204.33604336043845 119.3537634408597 204.33604336043845 C133.47204301075212 200.6504065040694 144.65806451612823 190.78590785908295 149.97956989247254 177.23577235772748 C158.3419354838702 155.77235772358063 148.7849462365585 130.73170731707614 128.04193548387036 120.43360433604607 Z" vector-effect="non-scaling-stroke"/></defs> <path style="stroke-width: 0; stroke-linecap: butt; stroke-linejoin: miter; fill: rgb(255, 255, 255); transform-box: fill-box; transform-origin: center center; transform: rotate(730deg);" d="M126.72797431798836 60.687778347356016 C109.46023238250444 52.1240927104991 88.60861947927896 55.37612523082453 74.92474851153702 68.8178596481689 C74.92474851153702 68.8178596481689 25.40216786637592 128.22165368611059 25.40216786637592 128.22165368611059 C25.40216786637592 128.22165368611059 25.40216786637592 128.22165368611059 25.40216786637592 128.22165368611059 C24.641952812612487 129.19726344220817 23.990339909386705 130.17287319830575 23.447329156698515 131.25688403841423 C24.098942059924354 131.5820872904469 24.750554963150137 131.7988894584687 25.51077001691357 132.12409271050092 C26.053780769601758 131.25688403841423 26.48818937175224 130.38967536632754 27.13980227497808 129.63086777825174 C27.13980227497808 129.63086777825174 76.44517861906388 70.3354748243205 76.44517861906388 70.3354748243205 C89.58603883411752 57.54414691104148 109.35163023196685 54.50891655873784 125.75055496314951 62.63899785955118 C145.5161463609992 72.50349650453745 154.63872700616037 96.24333390291213 146.4935657158378 116.73113878096137 C141.38926464056897 129.63086777825174 130.7462538878808 139.0617620871949 117.38818937175182 142.53059677554165 C117.38818937175182 142.53059677554165 47.665608726590904 159.76636913326593 47.665608726590904 159.76636913326593 C41.692490447021044 161.5007864774393 35.28496356530064 160.19997346930904 30.397866791107106 156.4059355289296 C26.379587221214592 153.26230409261552 23.773135608311406 148.7094585641603 23.121522705085624 143.61460761565058 C22.687114102935084 140.25417401131426 23.230124855623217 137.00214149098883 24.424748511537246 133.9669111386852 C23.773135608311406 133.75010897066386 23.121522705085624 133.42490571863118 22.469909801859842 133.0997024665985 C21.05808184487057 136.46013607093482 20.51507109218244 140.14577292730337 20.949479694332922 143.83140978367192 C21.16668399540822 145.89103037987798 21.70969474809641 147.84224989207314 22.469909801859842 149.68506832025741 C19.537651737343708 146.64983796795377 16.931200124440466 142.42219569153121 14.976361414763062 137.65254799505374 C12.804318404010417 132.2324937945118 11.718296898634094 126.81243959396988 11.935501199709336 122.36799514952509 C11.392490447021203 121.28398430941661 10.849479694333013 120.30837455331903 10.197866791107174 119.224363713211 C10.197866791107174 119.224363713211 10.197866791107174 119.224363713211 10.197866791107174 119.224363713211 C9.2204474362685 124.42761574573115 10.197866791107174 131.5820872904469 13.021522705085658 138.51975666714043 C15.953780769601792 145.5658271278453 20.29786679110714 151.5278867484417 24.859157113687786 154.45471601673444 C26.270985070677 155.5387268568429 27.57421087712862 156.94794094898361 29.094640984655484 158.14035287310344 C32.8957162534727 161.17558322540708 37.56560872659094 162.69319840155867 42.344103350246826 162.69319840155867 C44.29894205992423 162.69319840155867 46.36238292013928 162.367995149526 48.317221629816686 161.82598972947198 C48.317221629816686 161.82598972947198 118.03980227497766 144.59021737174817 118.03980227497766 144.59021737174817 C132.15808184487014 140.90458051537917 143.3441033502462 131.04008187039244 148.66560872659056 117.48994636903717 C157.0279743179882 96.02653173489034 147.47098507067653 70.98588132838586 126.72797431798836 60.687778347356016 Z" vector-effect="non-scaling-stroke"/></g><g><defs><path id="path-1747222392632721" d="M141.72580645161213 130.84010840107456 C129.0193548387089 116.42276422763392 108.49354838709613 111.54471544714636 90.68279569892422 118.69918699186131 C90.68279569892422 118.69918699186131 22.37204301075255 155.01355013549014 22.37204301075255 155.01355013549014 C22.37204301075255 155.01355013549014 22.37204301075255 155.01355013549014 22.37204301075255 155.01355013549014 C21.28602150537624 155.66395663955504 20.308602150537535 156.31436314362 19.3311827956988 157.07317073169585 C19.76559139784935 157.6151761517502 20.30860215053751 158.15718157180422 20.851612903225693 158.5907859078478 C21.611827956989103 157.94037940378257 22.480645161290195 157.39837398372853 23.349462365591258 156.85636856367427 C23.349462365591258 156.85636856367427 91.44301075268766 120.65040650405639 91.44301075268766 120.65040650405639 C108.38494623655853 113.82113821137389 127.93333333333256 118.48238482383964 139.98817204300985 132.14092140920445 C154.54086021505282 148.72628726286166 153.99784946236474 174.20054200540739 138.6849462365583 190.13550135499997 C129.0193548387089 200.10840108399626 115.66129032257993 204.8780487804731 101.86881720430048 203.03523035228886 C101.86881720430048 203.03523035228886 30.843010752688027 192.62872628724878 30.843010752688027 192.62872628724878 C24.652688172042897 191.97831978318402 19.11397849462355 188.4010840108266 16.073118279569805 182.9810298102848 C13.575268817204227 178.5365853658407 12.92365591397843 173.33333333332072 14.226881720430024 168.3468834688224 C15.095698924731117 165.09485094849765 16.83333333333325 162.27642276421568 19.11397849462355 159.8915989159774 C18.570967741935373 159.45799457993448 18.027956989247215 158.91598915988024 17.593548387096682 158.37398373982592 C14.987096774193462 160.97560975608587 13.140860215053692 164.11924119240007 12.163440860215005 167.8048780487685 C11.511827956989201 169.9728997289848 11.294623655913938 172.24932249321253 11.403225806451568 174.52574525743992 C9.66559139784942 170.51490514903918 8.688172043010722 165.20325203250837 8.688172043010722 159.67479674795578 C8.688172043010722 153.8211382113709 9.882795698924683 148.29268292681851 11.837634408602097 144.17344173440682 C11.72903225806446 143.08943089429863 11.511827956989201 142.00542005419013 11.294623655913938 140.921409214082 C11.294623655913938 140.921409214082 11.294623655913938 140.81300813007098 11.294623655913938 140.81300813007098 C8.362365591397813 145.25745257451513 6.624731182795674 152.19512195120836 6.51612903225804 159.67479674795578 C6.51612903225804 167.2628726287142 8.253763440860174 174.52574525743992 11.294623655913938 178.9701897018839 C12.380645161290271 180.70460704605716 13.140860215053692 182.3306233062197 14.1182795698924 184.06504065039314 C17.48494623655904 190.02710027098888 23.675268817204174 194.03794037938985 30.51720430107509 194.79674796746562 C30.51720430107509 194.79674796746562 101.54301075268758 205.2032520325056 101.54301075268758 205.2032520325056 C103.60645161290262 205.52845528453804 105.66989247311766 205.63685636854885 107.62473118279505 205.63685636854885 C119.89677419354754 205.63685636854885 131.51720430107454 200.7588075880613 140.09677419354747 191.6531165311514 C156.38709677419263 174.95934959348315 157.03870967741847 148.29268292681851 141.72580645161213 130.84010840107456 Z" vector-effect="non-scaling-stroke"/></defs> <path style="stroke-width: 0; stroke-linecap: butt; stroke-linejoin: miter; fill: rgb(255, 255, 255); transform-box: fill-box; transform-origin: center center; transform: rotate(730deg);" d="M141.92992003037796 70.80298362556186 C129.2234684174747 56.38563945212081 108.69766196586193 51.50759067163335 90.88690927769005 58.662062216348204 C90.88690927769005 58.662062216348204 22.576156589518405 94.97642535997738 22.576156589518405 94.97642535997738 C22.576156589518405 94.97642535997738 22.576156589518405 94.97642535997738 22.576156589518405 94.97642535997738 C21.490135084142082 95.62683186404229 20.512715729303352 96.27723836810719 19.53529637446462 97.03604595618299 C19.969704976615162 97.57805137623745 20.512715729303352 98.12005679629146 21.05572648199154 98.55366113233504 C21.815941535754916 97.90325462826968 22.684758740055997 97.36124920821567 23.55357594435708 96.8192437881612 C23.55357594435708 96.8192437881612 91.64712433145348 60.61328172854337 91.64712433145348 60.61328172854337 C108.58905981532439 53.7840134358612 128.13744691209837 58.44526004832687 140.19228562177568 72.10379663369167 C154.74497379381864 88.68916248734877 154.20196304113063 114.16341722989455 138.88905981532412 130.0983765794872 C129.2234684174747 140.07127630848345 115.86540390134576 144.84092400496002 102.07293078306634 142.9981055767762 C102.07293078306634 142.9981055767762 31.04712433145386 132.59160151173592 31.04712433145386 132.59160151173592 C24.8568017508087 131.941195007671 19.31809207338938 128.3639592353138 16.277231858335654 122.94390503477189 C13.77938239597006 118.499460590328 13.127769492744278 113.29620855780786 14.430995299195843 108.3097586933095 C15.299812503496923 105.05772617298453 17.037446912099085 102.23929798870267 19.31809207338938 99.85447414046439 C18.77508132070119 99.42086980442173 18.232070568013057 98.87886438436726 17.797661965862517 98.3368589643128 C15.191210352959274 100.93848498057287 13.34497379381952 104.08211641688695 12.367554438980846 107.7677532732555 C11.715941535755007 109.93577495347199 11.498737234679766 112.21219771769984 11.607339385217415 114.48862048192723 C9.869704976615253 110.47778037352646 8.892285621776523 105.16612725699542 8.892285621776523 99.63767197244306 C8.892285621776523 93.78401343585801 10.086909277690495 88.25555815130565 12.041747987367899 84.13631695889399 C11.933145836830306 83.05230611878551 11.715941535755007 81.96829527867703 11.498737234679766 80.88428443856901 C11.498737234679766 80.88428443856901 11.498737234679766 80.77588335455812 11.498737234679766 80.77588335455812 C8.566479170163632 85.22032779900246 6.828844761561527 92.15799717569553 6.7202426110238775 99.63767197244306 C6.7202426110238775 107.22574785320148 8.457877019625982 114.48862048192723 11.498737234679766 118.93306492637112 C12.584758740056088 120.66748227054404 13.34497379381952 122.29349853070698 14.32239314865825 124.02791587488036 C17.689059815324867 129.98997549547585 23.879382395970026 134.00081560387707 30.72131787984091 134.75962319195287 C30.72131787984091 134.75962319195287 101.74712433145339 145.1661272569927 101.74712433145339 145.1661272569927 C103.81056519166845 145.49133050902537 105.8740060518835 145.5997315930358 107.82884476156084 145.5997315930358 C120.1008877723134 145.5997315930358 131.7213178798404 140.72168281254835 140.30088777231333 131.61599175563833 C156.59121035295846 114.92222481797035 157.24282325618435 88.25555815130565 141.92992003037796 70.80298362556186 Z" vector-effect="non-scaling-stroke"/></g><g><defs><path id="path-1747222392631719" d="M150.522580645161 146.01626016259917 C144.3322580645157 127.80487804877824 127.17311827956941 115.55555555555355 107.95053763440836 115.4471544715427 C107.95053763440836 115.4471544715427 107.84193548387067 115.4471544715427 107.84193548387067 115.4471544715427 C107.84193548387067 115.4471544715427 30.951612903225712 122.92682926829059 30.951612903225712 122.92682926829059 C30.951612903225712 122.92682926829059 30.951612903225712 122.92682926829059 30.951612903225712 122.92682926829059 C29.322580645161217 123.1436314363122 27.910752688171975 123.46883468834474 26.390322580645098 124.01084010839892 C26.60752688172037 124.66124661246397 26.933333333333255 125.42005420053972 27.15053763440852 126.07046070460478 C28.45376344086015 125.63685636856155 29.75698924731175 125.31165311652907 31.168817204301003 125.09485094850722 C31.168817204301003 125.09485094850722 107.95053763440836 117.61517615175943 107.95053763440836 117.61517615175943 C126.19569892473076 117.7235772357703 142.48602150537596 129.43089430894082 148.45913978494582 146.77506775067494 C155.62688172042965 167.6964769647667 145.3096774193545 191.00271002709695 125.10967741935444 199.89159891598578 C112.4032258064514 205.5284552845492 98.17634408602126 204.76964769647358 86.23010752688153 197.83197831977986 C86.23010752688153 197.83197831977986 24.435483870967644 161.19241192411633 24.435483870967644 161.19241192411633 C19.00537634408597 158.26558265582386 15.312903225806398 152.8455284552819 14.444086021505333 146.6666666666641 C13.358064516128987 138.31978319782957 17.91935483870961 130.51490514904927 25.087096774193476 126.9376693766915 C24.761290322580585 126.28726287262651 24.54408602150529 125.63685636856155 24.326881720430023 124.87804878048571 C19.00537634408597 127.3712737127348 15.095698924731138 132.0325203252009 13.249462365591343 137.4525745257427 C13.140860215053742 133.00813008129845 14.226881720430075 127.58807588075663 16.507526881720377 122.27642276422543 C18.679569892473047 117.07317073170532 21.611827956989156 112.62872628726083 24.869892473118203 109.7018970189683 C25.195698924731083 108.72628726287067 25.521505376344003 107.75067750677321 25.630107526881634 106.77506775067567 C25.630107526881634 106.55826558265395 25.73870967741927 106.34146341463217 25.73870967741927 106.12466124661063 C21.503225806451567 109.1598915989142 17.376344086021465 114.79674796747759 14.55268817204295 121.40921409213877 C11.620430107526852 128.45528455284332 10.42580645161286 135.7181571815694 11.511827956989213 141.02981029810047 C11.946236559139761 142.98102981029552 12.163440860215012 144.7154471544689 12.380645161290293 146.77506775067494 C13.249462365591343 153.6043360433577 17.37634408602144 159.67479674796485 23.458064516128946 162.92682926828982 C23.458064516128946 162.92682926828982 85.14408602150505 199.5663956639532 85.14408602150505 199.5663956639532 C92.20322580645136 203.57723577235416 99.91397849462332 205.63685636856022 107.73333333333305 205.63685636856022 C113.92365591397835 205.63685636856022 120.11397849462341 204.33604336043012 126.08709677419318 201.73441734416986 C147.26451612903185 192.41192411923788 158.0161290322576 167.91327913278857 150.522580645161 146.01626016259917 Z" vector-effect="non-scaling-stroke"/></defs> <path style="stroke-width: 0; stroke-linecap: butt; stroke-linejoin: miter; fill: rgb(255, 255, 255); transform-box: fill-box; transform-origin: center center; transform: rotate(730deg);" d="M151.49958733771155 86.46020292691082 C145.30926475706622 68.24882081308988 128.1501249721199 55.99949831986487 108.92754432695887 55.89109723585398 C108.92754432695887 55.89109723585398 108.81894217642116 55.89109723585398 108.81894217642116 55.89109723585398 C108.81894217642116 55.89109723585398 31.92861959577624 63.37077203260196 31.92861959577624 63.37077203260196 C31.92861959577624 63.37077203260196 31.92861959577624 63.37077203260196 31.92861959577624 63.37077203260196 C30.299587337711728 63.58757420062375 28.887759380722457 63.91277745265643 27.367329273195594 64.45478287271044 C27.584533574270893 65.10518937677534 27.910340025883784 65.86399696485114 28.127544326959026 66.51440346891604 C29.430770133410647 66.08079913287293 30.733995939862268 65.7555958808407 32.14582389685148 65.53879371281892 C32.14582389685148 65.53879371281892 108.92754432695887 58.05911891607093 108.92754432695887 58.05911891607093 C127.17270561728128 58.16752000008182 143.46302819792646 69.87483707325237 149.43614647749632 87.21901051498662 C156.60388841298015 108.14041972907808 146.28668411190495 131.44665279140827 126.08668411190496 140.3355416802974 C113.38023249900192 145.97239804886067 99.15335077857173 145.21359046078487 87.20711421943201 138.27592108409135 C87.20711421943201 138.27592108409135 25.412490563518134 101.63635468842767 25.412490563518134 101.63635468842767 C19.982383036636463 98.70952542013538 16.289909918356898 93.28947121959345 15.421092714055817 87.11060943097573 C14.335071208679494 78.76372596214105 18.89636153126014 70.95884791336084 26.064103466743973 67.38161214100319 C25.73829701513108 66.73120563693783 25.521092714055783 66.08079913287293 25.30388841298054 65.32199154479713 C19.982383036636463 67.8152164770463 16.072705617281656 72.47646308951244 14.226469058141845 77.89651729005436 C14.117866907604252 73.45207284561002 15.203888412980575 68.03201864506809 17.48453357427087 62.72036552853706 C19.656576585023572 57.51711349601692 22.58883464953965 53.07266905157212 25.84689916566873 50.145839783279825 C26.172705617281565 49.17023002718224 26.498512068894513 48.19462027108466 26.607114219432162 47.219010514987076 C26.607114219432162 47.00220834696529 26.715716369969755 46.785406178943504 26.715716369969755 46.56860401092217 C22.480232499002057 49.603834363225815 18.35335077857195 55.24069073178907 15.529694864593466 61.85315685645037 C12.597436800077332 68.89922731715478 11.40281314416336 76.16209994588098 12.48883464953974 81.47375306241202 C12.92324325169028 83.42497257460718 13.140447552765522 85.15938991878056 13.35765185384082 87.21901051498662 C14.226469058141845 94.04827880766925 18.35335077857195 100.11873951227653 24.43507120867946 103.37077203260151 C24.43507120867946 103.37077203260151 86.12109271405552 140.01033842826473 86.12109271405552 140.01033842826473 C93.18023249900187 144.0211785366655 100.89098518717384 146.08079913287156 108.71034002588357 146.08079913287156 C114.90066260652884 146.08079913287156 121.09098518717394 144.77998612474175 127.06410346674369 142.17836010848123 C148.2415228215824 132.85586688354942 158.9931357248081 108.35722189709986 151.49958733771155 86.46020292691082 Z" vector-effect="non-scaling-stroke"/></g><g><defs><path id="path-1747222392631717" d="M124.34946236559092 118.37398373983686 C124.34946236559092 118.37398373983686 49.95698924731166 97.23577235772314 49.95698924731166 97.23577235772314 C49.95698924731166 97.23577235772314 49.95698924731166 97.23577235772314 49.95698924731166 97.23577235772314 C48.762365591397675 96.91056910569061 47.567741935483696 96.69376693766893 46.37311827956975 96.69376693766893 C46.37311827956975 97.45257452574481 46.37311827956975 98.10298102980988 46.37311827956975 98.8617886178858 C47.35053763440842 98.9701897018966 48.43655913978476 99.07859078590741 49.41397849462352 99.40379403793999 C49.41397849462352 99.40379403793999 123.69784946236503 120.43360433604286 123.69784946236503 120.43360433604286 C140.6397849462361 127.26287262872577 151.49999999999952 144.0650406504058 150.63118279569855 162.38482384823774 C149.65376344085968 184.39024390243813 131.5172043010748 202.3848238482374 109.47096774193507 203.25203252032438 C95.56989247311787 203.7940379403784 82.64623655913945 197.9403794037932 74.06666666666642 187.10027100270938 C74.06666666666642 187.10027100270938 29.974193548386996 130.40650406504008 29.974193548386996 130.40650406504008 C25.955913978494557 125.63685636856293 24.544086021505297 119.24119241192355 26.06451612903216 113.2791327913274 C28.236559139784873 104.71544715447108 35.83870967741924 98.9701897018966 44.309677419354664 98.75338753387489 C44.309677419354664 97.99457994579903 44.20107526881706 97.34417344173396 44.309677419354664 96.5853658536581 C38.33655913978481 96.6937669376689 32.797849462365505 99.40379403793996 28.88817204301068 103.63143631436274 C30.517204301075143 99.62059620596163 33.4494623655913 95.17615176151722 37.359139784946144 91.27371273712697 C41.26881720430093 87.37127371273668 45.72150537634392 84.33604336043322 49.73978494623641 82.71002710027055 C50.39139784946215 81.84281842818385 51.04301075268803 80.97560975609713 51.69462365591378 80.21680216802129 C51.80322580645141 80.10840108401044 51.911827956989065 79.89159891598874 52.02043010752673 79.7831978319779 C46.9161290322579 80.97560975609713 40.94301075268805 84.6612466124657 35.83870967741924 89.75609756097518 C30.517204301075143 95.17615176151722 26.716129032257967 101.57181571815686 25.738709677419255 106.775067750677 C25.41290322580637 108.61788617886124 24.544086021505276 110.56910569105631 24.109677419354732 112.7371273712733 C22.372043010752602 119.34959349593454 24.109677419354732 126.50406504064979 28.45376344086012 131.81571815718098 C28.45376344086012 131.81571815718098 72.4376344086019 188.40108401083918 72.4376344086019 188.40108401083918 C81.12580645161256 199.24119241192327 93.94086021505338 205.42005420054124 107.73333333333305 205.42005420054124 C108.38494623655879 205.42005420054124 109.03655913978453 205.42005420054124 109.6881720430103 205.42005420054124 C132.92903225806413 204.44444444444352 151.93440860215003 185.58265582655744 152.91182795698865 162.49322493224858 C153.67204301075222 143.19783197831913 142.26881720430057 125.52845528455221 124.34946236559092 118.37398373983686 Z" vector-effect="non-scaling-stroke"/></defs> <path style="stroke-width: 0; stroke-linecap: butt; stroke-linejoin: miter; fill: rgb(255, 255, 255); transform-box: fill-box; transform-origin: center center; transform: rotate(730deg);" d="M127.5383896378064 60.093824171695815 C127.5383896378064 60.093824171695815 53.145916519527134 38.955612789581664 53.145916519527134 38.955612789581664 C53.145916519527134 38.955612789581664 53.145916519527134 38.955612789581664 53.145916519527134 38.955612789581664 C51.95129286361316 38.63040953754944 50.75666920769919 38.413607369527654 49.56204555178522 38.413607369527654 C49.56204555178522 39.17241495760345 49.56204555178522 39.82282146166881 49.56204555178522 40.581629049744606 C50.53946490662389 40.6900301337555 51.62548641200027 40.79843121776639 52.602905766839 41.12363446979862 C52.602905766839 41.12363446979862 126.88677673458051 62.15344476790142 126.88677673458051 62.15344476790142 C143.82871221845159 68.9827130605845 154.68892727221498 85.78488108226475 153.82011006791402 104.10466428009659 C152.84269071307517 126.11008433429697 134.7061315732903 144.10466428009613 112.65989501415055 144.97187295218328 C98.75881974533337 145.5138783722373 85.83516383135498 139.6602198356518 77.25559393888193 128.82011143456793 C77.25559393888193 128.82011143456793 33.1631208206025 72.12634449689904 33.1631208206025 72.12634449689904 C29.144841250710044 67.35669680042156 27.733013293720774 60.961032843782505 29.253443401247637 54.99897322318611 C31.425486412000396 46.43528758632965 39.02763694963471 40.6900301337555 47.498604691570165 40.47322796573371 C47.498604691570165 39.714420377657916 47.39000254103257 39.06401387359256 47.498604691570165 38.30520628551676 C41.525486412000305 38.413607369527654 35.986776734580985 41.12363446979862 32.07709931522618 45.35127674622163 C33.706131573290634 41.3404366378204 36.63838963780677 36.89599219337606 40.54806705716163 32.99355316898573 C44.45774447651644 29.091114144595394 48.910432648559436 26.055883792292207 52.92871221845189 24.429867532129265 C53.580325121677674 23.562658860042575 54.23193802490351 22.695450187955885 54.883550928129296 21.936642599880088 C54.99215307866689 21.828241515869195 55.10075522920454 21.61143934784741 55.209357379742244 21.503038263836515 C50.10505630447341 22.695450187955885 44.13193802490355 26.38108704432443 39.02763694963471 31.475937992834133 C33.706131573290634 36.89599219337606 29.905056304473476 43.29165615001557 28.927636949634746 48.49490818253571 C28.601830498021855 50.33772661071998 27.733013293720774 52.28894612291515 27.298604691570233 54.4569678031321 C25.56097028296807 61.0694339277934 27.298604691570233 68.2239054725087 31.642690713075638 73.53555858903974 C31.642690713075638 73.53555858903974 75.62656168081742 130.12092444269774 75.62656168081742 130.12092444269774 C84.31473372382806 140.96103284378205 97.12978748726886 147.13989463240023 110.92226060554856 147.13989463240023 C111.57387350877428 147.13989463240023 112.22548641200001 147.13989463240023 112.87709931522579 147.13989463240023 C136.11795953027962 146.1642848763022 155.12333587436558 127.30249625841634 156.10075522920408 104.21306536410748 C156.86097028296774 84.91767241017806 145.45774447651604 67.24829571641112 127.5383896378064 60.093824171695815 Z" vector-effect="non-scaling-stroke"/></g></svg>